<svg width="18" height="14" fill="none" xmlns="http://www.w3.org/2000/svg"><path d="M1.8 14c-.495 0-.919-.171-1.27-.514A1.663 1.663 0 010 12.25V1.75C0 1.269.176.857.53.514A1.756 1.756 0 011.8 0h14.4c.495 0 .919.172 1.272.514.352.343.528.755.528 1.236v10.5c0 .481-.176.893-.528 1.236A1.76 1.76 0 0116.2 14H1.8zM9 7.722a.905.905 0 00.236-.033.937.937 0 00.236-.098l6.368-3.872a.734.734 0 00.27-.273.74.74 0 00.09-.362.71.71 0 00-.382-.656c-.255-.146-.518-.138-.788.022L9 6.125 2.97 2.45c-.27-.16-.533-.164-.788-.011-.254.153-.382.368-.382.645 0 .146.03.274.09.383.06.11.15.193.27.252L8.527 7.59a.937.937 0 00.237.098.912.912 0 00.236.033z" fill="#242424"/></svg>