<svg width="140" height="90" fill="none" xmlns="http://www.w3.org/2000/svg"><g clip-path="url(#clip0_15_699)"><path fill-rule="evenodd" clip-rule="evenodd" d="M69.787 0L42.98 11.703H16.81s1.191 5.851 4.255 5.851v3.901H0s1.191 5.852 4.255 5.852v61.542l1.915-.434V39.32c0-1.43 1.277-1.525 1.277 0v48.804l1.915-.434V40.68c0-13.653 11.702-13.653 11.702 0v44.355l1.915-.435V36.46c0-1.43 1.276-1.43 1.276 0v47.85l1.915-.434v-52.67c0-13.653 11.702-13.653 11.702 0v50.015l1.915-.434v-49.58c0-1.42 1.277-1.42 1.277 0v49.29l1.915-.434V26.47c.07-2.787 2.042-9.697 9.361-12.818L69.787 6.13V0zM51.078 78.226l-2.993.68V33.435c0-12.817 21.702-19.226 21.702-19.226l.19 2.112.15-2.111s21.788 6.448 21.788 19.345c0 .924-.019 1.715-.053 2.388h.053v33.018l-2.78.63V47.25c0-5.01-1.53-8.033-3.648-8.124-2.118.09-3.647 3.114-3.647 8.124v23.998l-2.958.67V47.25c0-5.01-1.53-8.033-3.648-8.124-2.118.09-3.648 3.114-3.648 8.124v26.324l-2.958.67V47.25c0-5.01-1.53-8.033-3.648-8.124-2.118.091-3.648 3.114-3.648 8.124V75.9l-2.958.671V47.25c0-5.01-1.53-8.033-3.648-8.124-2.118.091-3.648 3.114-3.648 8.124v30.976zM98.936 67.37l-1.915.434V26.471c-.07-2.787-2.042-9.697-9.361-12.818L70.213 6.13V0L97.02 11.703h26.17s-1.191 5.851-4.255 5.851v3.901H140s-1.191 5.852-4.255 5.852v31.711l-1.915.434v-20.13c0-1.43-1.277-1.525-1.277 0v20.421l-1.915.435V40.68c0-13.653-11.702-13.653-11.702 0v22.15l-1.915.435V36.46c0-1.43-1.276-1.43-1.276 0v27.095l-1.915.434V31.207c0-13.653-11.702-13.653-11.702 0v35.438l-1.915.434V31.207c0-1.418-1.277-1.418-1.277 0V67.37zM88.298 35.944v-2.388c0-7.177-12.199-12.71-18.298-14.58h-.096c-6.13 1.887-18.202 7.365-18.202 14.46v2.508h36.596z" fill="#EFDABC"/><path d="M42.979 11.703v.5h.104l.096-.042-.2-.458zM69.787 0h.5v-.764l-.7.306.2.458zM16.808 11.703v-.5h-.612l.123.6.49-.1zm4.256 5.851h.5v-.5h-.5v.5zm0 3.901v.5h.5v-.5h-.5zM0 21.455v-.5h-.612l.122.6.49-.1zm4.255 5.852h.5v-.5h-.5v.5zm0 61.542h-.5v.626l.61-.138-.11-.488zm1.915-.434l.11.487.39-.088v-.4h-.5zm1.277-.29h-.5v.626l.61-.139-.11-.487zm1.915-.434l.11.487.39-.088v-.4h-.5zm11.702-2.655h-.5v.626l.61-.139-.11-.487zm1.915-.435l.11.488.39-.089v-.399h-.5zm1.276-.29h-.5v.627l.61-.139-.11-.487zm1.915-.434l.11.488.39-.089v-.399h-.5zm11.702-2.655h-.5v.626l.611-.138-.11-.488zm1.915-.434l.11.487.39-.088v-.4h-.5zm1.277-.29h-.5v.626l.61-.138-.11-.488zm1.915-.434l.11.487.39-.088v-.4h-.5zm0-53.593l-.5-.013v.013h.5zm9.361-12.818l.196.46h.002l-.198-.46zM69.787 6.13l.198.46.302-.131V6.13h-.5zM48.085 78.905h-.5v.626l.61-.138-.11-.488zm2.993-.679l.111.488.39-.088v-.4h-.5zm18.71-64.016l.497-.044-.054-.608-.585.173.141.48zm.189 2.112l-.498.044.997-.009-.5-.035zm.15-2.111l.143-.48-.597-.176-.044.62.499.035zm21.735 21.733l-.5-.025-.026.525h.526v-.5zm.053 0h.5v-.5h-.5v.5zm0 33.018l.11.487.39-.088v-.4h-.5zm-2.78.63h-.5v.626l.611-.138-.11-.488zm-3.648-30.466l.022-.5h-.042l.02.5zM81.84 71.248l.11.487.39-.088v-.4h-.5zm-2.958.67h-.5v.627l.61-.139-.11-.488zm-3.648-32.792l.021-.5h-.043l.022.5zm-3.648 34.448l.11.487.39-.088v-.4h-.5zm-2.958.67h-.5v.627l.61-.139-.11-.487zM64.98 39.127l.021-.5h-.042l.021.5zM61.332 75.9l.11.488.39-.089V75.9h-.5zm-2.958.671h-.5v.626l.61-.138-.11-.488zm-3.648-37.445l.022-.5h-.043l.021.5zm42.295 28.677h-.5v.626l.61-.138-.11-.488zm1.915-.434l.11.487.39-.088v-.4h-.5zM97.021 26.47h.5v-.013l-.5.013zM87.66 13.653l-.198.46h.001l.197-.46zM70.213 6.13h-.5v.329l.302.13.198-.459zm0-6.13l.2-.458-.7-.306V0h.5zM97.02 11.703l-.2.458.096.042h.104v-.5zm26.17 0l.49.1.123-.6h-.613v.5zm-4.255 5.851v-.5h-.5v.5h.5zm0 3.901h-.5v.5h.5v-.5zm21.064 0l.49.1.122-.6H140v.5zm-4.255 5.852v-.5h-.5v.5h.5zm0 31.711l.11.488.39-.089v-.399h-.5zm-1.915.434h-.5v.627l.61-.139-.11-.487zm-1.277.29l.111.488.389-.089v-.399h-.5zm-1.915.435h-.5v.626l.611-.139-.111-.487zm-11.702 2.654l.111.488.389-.088v-.4h-.5zm-1.915.435h-.5v.626l.611-.139-.111-.487zm-1.276.29l.11.487.39-.088v-.4h-.5zm-1.915.434h-.5v.626l.61-.138-.11-.488zm-11.702 2.655l.11.487.39-.088v-.4h-.5zm-1.915.434h-.5v.626l.61-.138-.11-.488zM88.298 35.944v.5h.5v-.5h-.5zM70 18.977l.147-.478-.072-.022H70v.5zm-.096 0v-.5h-.075l-.072.022.147.478zM51.702 35.944h-.5v.5h.5v-.5zM43.18 12.161L69.987.458l-.4-.916L42.78 11.244l.4.917zm-26.37.042h26.17v-1H16.81v1zm4.255 4.851c-.592 0-1.12-.278-1.602-.766-.486-.49-.893-1.165-1.221-1.87a13.872 13.872 0 01-.718-1.94 14.271 14.271 0 01-.212-.817l-.01-.045-.002-.01v-.003l-.49.1-.49.1v.006a6.67 6.67 0 00.06.263c.04.166.101.402.183.685.165.563.417 1.32.772 2.082.352.758.818 1.547 1.417 2.152.603.61 1.372 1.063 2.313 1.063v-1zm.5 4.401v-3.9h-1v3.9h1zM0 21.955h21.064v-1H0v1zm4.255 4.852c-.591 0-1.12-.28-1.602-.766-.485-.492-.893-1.166-1.221-1.871a13.874 13.874 0 01-.718-1.94 14.39 14.39 0 01-.221-.862l-.003-.01v-.003l-.49.1-.49.1v.002l.001.004.003.015a5.913 5.913 0 00.057.248c.04.166.1.402.183.685.164.564.417 1.321.771 2.083.353.757.818 1.546 1.417 2.152.604.61 1.373 1.063 2.313 1.063v-1zm.5 62.042V27.306h-1V88.85h1zm-.39.487l1.916-.434-.221-.975-1.915.434.22.975zM5.67 39.322v49.094h1V39.32h-1zm2.277 0c0-.444-.092-.829-.281-1.118-.193-.295-.503-.504-.876-.49-.364.014-.658.235-.84.52-.185.286-.28.66-.28 1.088h1c0-.288.065-.461.12-.547.056-.087.082-.063.037-.062a.075.075 0 01-.037-.007c-.001 0 .015.008.039.045.05.077.118.252.118.57h1zm0 48.804V39.32h-1v48.804h1zm-.39.487l1.915-.434-.22-.975-1.916.434.221.975zm1.305-47.93V87.69h1V40.681h-1zm12.702 0c0-3.48-.745-6.142-1.908-7.951-1.165-1.812-2.77-2.79-4.443-2.79-1.674 0-3.279.978-4.443 2.79-1.164 1.81-1.908 4.471-1.908 7.95h1c0-3.348.718-5.806 1.749-7.41 1.03-1.601 2.35-2.33 3.602-2.33 1.252 0 2.572.729 3.602 2.33 1.03 1.604 1.749 4.062 1.749 7.41h1zm0 44.354V40.68h-1v44.355h1zm-.39.487l1.915-.434-.22-.975-1.916.434.221.975zm1.305-49.062v48.14h1v-48.14h-1zm2.276 0c0-.426-.094-.8-.284-1.082-.191-.286-.493-.49-.854-.49s-.663.204-.854.49c-.19.283-.284.656-.284 1.082h1c0-.288.065-.451.115-.526.048-.072.065-.046.023-.046s-.025-.026.023.046c.05.075.115.238.115.526h1zm0 47.85v-47.85h-1v47.85h1zm-.39.488l1.916-.434-.221-.975-1.915.434.22.975zm1.305-53.592v52.67h1v-52.67h-1zm12.702 0c0-3.479-.744-6.14-1.907-7.95-1.165-1.811-2.77-2.79-4.444-2.79s-3.278.979-4.443 2.79c-1.163 1.81-1.908 4.471-1.908 7.95h1c0-3.347.718-5.805 1.75-7.41 1.029-1.6 2.35-2.33 3.601-2.33 1.252 0 2.573.73 3.602 2.33 1.031 1.605 1.75 4.063 1.75 7.41h1zm0 50.015V31.207h-1v50.015h1zm-.389.488l1.915-.434-.221-.976-1.915.435.221.975zm1.304-50.503v49.58h1v-49.58h-1zm2.277 0c0-.424-.095-.796-.285-1.077-.192-.285-.494-.487-.854-.487-.359 0-.66.202-.853.487-.19.281-.285.653-.285 1.077h1c0-.284.065-.445.114-.518.047-.07.065-.046.024-.046-.04 0-.022-.024.025.046.05.073.114.234.114.518h1zm0 49.291v-49.29h-1v49.29h1zm-.39.488l1.915-.435-.22-.975-1.916.435.221.975zM42.48 26.47v53.593h1V26.47h-1zm9.665-13.278c-7.55 3.22-9.59 10.346-9.665 13.265l1 .025c.067-2.653 1.97-9.348 9.057-12.37l-.392-.92zM69.59 5.671l-17.447 7.523.396.918L69.985 6.59l-.396-.918zM69.287 0v6.13h1V0h-1zM48.196 79.393l2.993-.68-.221-.974-2.994.679.222.975zm-.61-42.892v42.404h1V36.501h-1zm0-.557v.557h1v-.557h-1zm0-2.508v2.508h1v-2.508h-1zm22.2-19.226l-.142-.479-.004.002-.013.003-.049.015-.186.058c-.162.05-.398.127-.698.228-.6.203-1.456.506-2.482.91-2.05.807-4.789 2.02-7.531 3.64-5.438 3.21-11.097 8.146-11.097 14.85h1c0-6.115 5.192-10.792 10.605-13.99 2.684-1.584 5.37-2.775 7.39-3.57a52.742 52.742 0 012.435-.892 35.374 35.374 0 01.856-.277l.044-.014.01-.003h.003l-.14-.48zm.688 2.067l-.19-2.111-.996.09.19 2.11.996-.09zm-.846-2.102l-.15 2.111.997.071.15-2.11-.997-.072zm22.786 19.38c0-6.741-5.68-11.707-11.139-14.938-2.753-1.63-5.502-2.85-7.56-3.663a53.962 53.962 0 00-2.492-.915 35.55 35.55 0 00-.888-.288l-.049-.015-.012-.003-.004-.002-.143.48-.142.479h.003a7.74 7.74 0 01.055.018l.178.055c.156.05.387.124.682.223.589.2 1.432.5 2.444.899 2.027.8 4.725 1.998 7.419 3.592 5.434 3.217 10.648 7.924 10.648 14.079h1zm-.054 2.415c.035-.684.054-1.484.054-2.414h-1c0 .917-.019 1.7-.053 2.363l1 .05zm-.446-.526h-.053v1h.053v-1zm.5 33.518V35.944h-1v33.018h1zm-3.169 1.118l2.78-.63-.222-.976-2.78.63.222.976zm-.61-22.83v22.342h1V47.25h-1zm-3.17-7.624c.792.034 1.577.616 2.186 1.928.606 1.304.983 3.233.983 5.696h1c0-2.547-.387-4.635-1.076-6.117-.685-1.475-1.724-2.45-3.05-2.506l-.043.999zM82.34 47.25c0-2.463.377-4.392.983-5.696.61-1.312 1.394-1.894 2.186-1.928l-.043-1c-1.326.058-2.365 1.032-3.05 2.507-.689 1.482-1.076 3.57-1.076 6.117h1zm0 23.998V47.25h-1v23.998h1zm-3.348 1.158l2.958-.67-.221-.976-2.958.67.221.976zm-.61-25.156v24.668h1V47.25h-1zm-3.17-7.624c.792.034 1.577.616 2.187 1.928.605 1.304.983 3.233.983 5.696h1c0-2.547-.388-4.635-1.077-6.117-.684-1.475-1.724-2.45-3.05-2.506l-.043.999zm-3.126 7.624c0-2.463.377-4.392.983-5.696.61-1.312 1.394-1.894 2.186-1.928l-.043-1c-1.326.058-2.365 1.032-3.05 2.507-.689 1.482-1.076 3.57-1.076 6.117h1zm0 26.324V47.25h-1v26.324h1zm-3.347 1.158l2.957-.67-.22-.976-2.959.671.222.975zm-.611-27.482v26.995h1V47.25h-1zm-3.17-7.624c.793.034 1.577.616 2.187 1.928.606 1.304.983 3.233.983 5.696h1c0-2.547-.388-4.635-1.076-6.117-.685-1.475-1.724-2.45-3.05-2.506l-.043.999zm-3.126 7.624c0-2.463.377-4.392.983-5.696.61-1.312 1.395-1.894 2.186-1.928l-.042-1c-1.327.058-2.366 1.032-3.05 2.507-.69 1.482-1.077 3.57-1.077 6.117h1zm0 28.65V47.25h-1V75.9h1zm-3.347 1.159l2.958-.671-.221-.976-2.958.671.22.976zm-.61-29.809v29.321h1V47.25h-1zm-3.17-7.624c.792.034 1.577.616 2.186 1.928.606 1.304.983 3.233.983 5.696h1c0-2.547-.387-4.635-1.076-6.117-.685-1.475-1.724-2.45-3.05-2.506l-.043.999zm-3.127 7.624c0-2.463.378-4.392.983-5.696.61-1.312 1.395-1.894 2.187-1.928l-.043-1c-1.326.058-2.365 1.032-3.05 2.507-.689 1.482-1.077 3.57-1.077 6.117h1zm0 30.976V47.25h-1v30.976h1zm45.554-9.935l1.915-.435-.221-.975-1.915.435.22.975zm.39-.488V26.471h-1v41.332h1zm0-41.345c-.075-2.92-2.116-10.045-9.666-13.265l-.392.92c7.087 3.022 8.99 9.717 9.057 12.37l1-.025zm-9.664-13.264L70.41 5.671l-.396.918 17.447 7.523.396-.918zM70.713 6.13V0h-1v6.13h1zm-.7-5.672L96.82 12.161l.4-.916L70.413-.458l-.4.916zM97.02 12.203h26.17v-1H97.02v1zm26.17-.5l-.489-.1-.001.002-.002.01-.01.046c-.009.04-.022.1-.041.176-.037.154-.093.375-.171.64a13.774 13.774 0 01-.718 1.94c-.328.706-.735 1.38-1.221 1.871-.482.488-1.01.766-1.602.766v1c.941 0 1.71-.453 2.313-1.063.599-.605 1.065-1.394 1.417-2.152a14.827 14.827 0 00.954-2.768l.046-.195.011-.053a.134.134 0 01.003-.014l.001-.004v-.002l-.49-.1zm-4.755 5.851v3.901h1v-3.9h-1zm.5 4.401H140v-1h-21.064v1zm21.064-.5l-.49-.1v.003a.053.053 0 00-.003.01l-.009.045-.041.176c-.037.154-.094.375-.171.64a13.896 13.896 0 01-.718 1.94c-.328.706-.736 1.38-1.221 1.872-.482.487-1.011.765-1.602.765v1c.94 0 1.709-.452 2.313-1.062.599-.606 1.064-1.395 1.417-2.152a14.93 14.93 0 00.771-2.083 15.595 15.595 0 00.244-.952v-.001l-.49-.1zm-4.755 5.852v31.711h1V27.306h-1zM133.94 59.94l1.915-.434-.221-.975-1.915.434.221.975zm.39-.487V39.32h-1v20.132h1zm0-20.132c0-.427-.095-.802-.279-1.088-.183-.285-.477-.506-.841-.52-.373-.014-.683.195-.876.49-.189.29-.281.674-.281 1.118h1c0-.319.068-.494.118-.571.024-.037.04-.046.039-.045a.08.08 0 01-.037.007c-.045-.001-.019-.026.037.062.055.086.12.26.12.547h1zm-2.277 0v20.421h1V39.321h-1zm-1.304 21.343l1.915-.434-.221-.975-1.915.434.221.975zm.389-.487V40.68h-1v19.496h1zm0-19.496c0-3.479-.744-6.14-1.908-7.95-1.164-1.812-2.769-2.79-4.443-2.79-1.674 0-3.278.978-4.443 2.79-1.163 1.81-1.908 4.471-1.908 7.95h1c0-3.348.718-5.806 1.749-7.41 1.03-1.601 2.351-2.33 3.602-2.33 1.252 0 2.573.729 3.602 2.33 1.031 1.604 1.749 4.062 1.749 7.41h1zm-12.702 0v22.15h1v-22.15h-1zm-1.304 23.073l1.915-.435-.221-.975-1.915.434.221.976zm.389-.488V36.46h-1v26.805h1zm0-26.805c0-.426-.094-.8-.284-1.082-.191-.286-.493-.49-.854-.49s-.663.204-.854.49c-.19.282-.284.656-.284 1.082h1c0-.288.065-.451.115-.526.048-.072.065-.046.023-.046s-.025-.026.023.046c.05.075.115.238.115.526h1zm-2.276 0v27.095h1V36.46h-1zm-1.305 28.017l1.915-.435-.221-.975-1.915.434.221.976zm.39-.488V31.207h-1V63.99h1zm0-32.783c0-3.479-.745-6.14-1.908-7.95-1.165-1.811-2.769-2.79-4.443-2.79-1.674 0-3.279.979-4.443 2.79-1.164 1.81-1.908 4.471-1.908 7.95h1c0-3.347.718-5.805 1.749-7.41 1.029-1.6 2.35-2.33 3.602-2.33 1.251 0 2.572.73 3.602 2.33 1.031 1.605 1.749 4.063 1.749 7.41h1zm-12.702 0v35.438h1V31.207h-1zm-1.305 36.36l1.915-.435-.221-.975-1.915.435.221.975zm.39-.488V31.207h-1V67.08h1zm0-35.872c0-.424-.095-.796-.285-1.077-.192-.285-.494-.487-.853-.487-.36 0-.662.202-.854.487-.19.281-.285.653-.285 1.077h1c0-.284.065-.445.114-.518.047-.07.065-.046.025-.046s-.023-.024.024.046c.05.073.114.234.114.518h1zm-2.277 0V67.37h1V31.207h-1zm-10.638 2.349v2.388h1v-2.388h-1zM69.853 19.455c3.019.925 7.546 2.757 11.308 5.238 1.88 1.24 3.55 2.63 4.744 4.131 1.194 1.5 1.893 3.085 1.893 4.732h1c0-1.942-.826-3.74-2.11-5.354-1.283-1.613-3.045-3.07-4.977-4.344-3.862-2.547-8.483-4.415-11.564-5.36l-.294.957zm.05.022H70v-1h-.096v1zm-17.7 13.96c0-1.626.69-3.192 1.872-4.677 1.183-1.485 2.837-2.86 4.704-4.09 3.734-2.459 8.238-4.282 11.272-5.215l-.294-.956c-3.096.952-7.693 2.81-11.528 5.336-1.917 1.263-3.664 2.706-4.936 4.302-1.273 1.598-2.09 3.378-2.09 5.3h1zm0 2.507v-2.508h-1v2.508h1zm36.095-.5H51.702v1h36.596v-1z" fill="#EFDABC"/><path d="M119.575 68.682v-.54h3.512v.54h-1.473v4.478h-.567v-4.478h-1.472zm5.278 4.557c-.339 0-.631-.08-.876-.24a1.582 1.582 0 01-.565-.677 2.448 2.448 0 01-.197-1.014c0-.385.066-.725.197-1.019a1.64 1.64 0 01.553-.69c.238-.168.516-.25.833-.25.183 0 .363.032.542.097.178.066.341.172.487.319.146.145.263.338.35.578.087.24.13.536.13.887v.245h-2.708v-.5h2.159c0-.212-.039-.402-.119-.568a.89.89 0 00-.841-.539.922.922 0 00-.558.171 1.11 1.11 0 00-.359.441 1.37 1.37 0 00-.126.583v.333c0 .285.046.525.137.723.093.196.222.346.387.448.164.102.356.152.574.152.141 0 .27-.02.384-.063a.804.804 0 00.299-.196.903.903 0 00.195-.329l.521.157a1.266 1.266 0 01-.757.833 1.67 1.67 0 01-.642.118zm3.309.01c-.223 0-.425-.045-.606-.135a1.055 1.055 0 01-.432-.395 1.17 1.17 0 01-.16-.627c0-.215.039-.39.118-.524a.876.876 0 01.318-.319c.133-.076.279-.134.439-.171.162-.04.324-.07.488-.093.213-.03.386-.052.519-.066a.753.753 0 00.292-.081c.063-.038.094-.103.094-.196v-.02c0-.242-.062-.43-.185-.563-.122-.134-.307-.201-.556-.201-.257 0-.459.06-.606.181a1.07 1.07 0 00-.309.387l-.512-.196c.092-.228.214-.407.366-.534.154-.129.322-.219.503-.27a1.97 1.97 0 01.54-.078c.113 0 .242.015.389.044.148.028.29.086.427.174.139.088.254.222.346.4.091.178.137.416.137.715v2.48h-.54v-.51h-.027a1.036 1.036 0 01-.524.5 1.237 1.237 0 01-.519.098zm.082-.52c.214 0 .394-.045.54-.135a.89.89 0 00.334-.347.938.938 0 00.114-.449v-.529c-.023.03-.073.056-.151.08a2.362 2.362 0 01-.265.062 11.259 11.259 0 01-.517.074c-.14.02-.271.051-.393.095a.673.673 0 00-.293.194.516.516 0 00-.11.347c0 .201.07.353.208.456a.89.89 0 00.533.152zm2.035-2.793v-.539h2.854v.54h-1.153v3.223h-.539v-3.224h-1.162zm3.641 4.636v-5.175h.522v.598h.064a4.76 4.76 0 01.164-.25.988.988 0 01.307-.274c.134-.082.315-.123.544-.123.296 0 .557.08.782.238.226.158.402.383.529.674.126.29.189.633.189 1.029 0 .398-.063.743-.189 1.036a1.59 1.59 0 01-.526.676 1.313 1.313 0 01-.776.238c-.225 0-.406-.04-.542-.12a1.03 1.03 0 01-.313-.277 3.541 3.541 0 01-.169-.26h-.046v1.99h-.54zm.531-3.293c0 .284.039.535.116.752.078.215.192.384.341.507.15.12.333.181.549.181a.845.845 0 00.565-.19c.152-.13.267-.303.343-.52.078-.219.117-.462.117-.73 0-.265-.038-.503-.115-.716a1.102 1.102 0 00-.34-.507.86.86 0 00-.57-.188.858.858 0 00-.553.178 1.07 1.07 0 00-.339.495 2.175 2.175 0 00-.114.738zm-25.689 6.853v9.594h-1.332V79.35h-.064l-2.685 1.555v-1.18l2.749-1.593h1.332zm6.686 9.725c-.738 0-1.389-.114-1.955-.342-.562-.23-1.001-.548-1.316-.95a2.18 2.18 0 01-.467-1.388c-.003-.406.088-.78.274-1.124.186-.346.44-.635.763-.867a2.496 2.496 0 011.09-.445v-.056a2.137 2.137 0 01-1.257-.773 2.14 2.14 0 01-.462-1.363 2.11 2.11 0 01.424-1.307c.287-.384.681-.687 1.182-.909.505-.222 1.079-.332 1.724-.332.637 0 1.206.11 1.707.332.501.222.895.525 1.182.909a2.172 2.172 0 01-.038 2.67 2.134 2.134 0 01-1.24.773v.056c.397.063.755.211 1.074.445.318.232.572.52.762.867.19.344.287.719.29 1.124a2.211 2.211 0 01-.483 1.387c-.315.403-.754.72-1.316.951-.558.228-1.204.342-1.938.342zm0-1.03c.497 0 .927-.07 1.288-.211.362-.14.641-.34.838-.595.197-.256.297-.556.301-.9a1.575 1.575 0 00-.322-.96 2.133 2.133 0 00-.865-.656 3.048 3.048 0 00-1.24-.239c-.469 0-.888.08-1.257.239a2.13 2.13 0 00-.864.656c-.208.278-.31.598-.307.96a1.43 1.43 0 00.285.9c.197.256.478.454.843.595.365.14.798.21 1.3.21zm0-4.554a2.53 2.53 0 001.047-.206c.308-.138.549-.33.725-.576.175-.247.265-.536.268-.867a1.443 1.443 0 00-.263-.848 1.65 1.65 0 00-.714-.562 2.613 2.613 0 00-1.063-.202c-.412 0-.772.067-1.08.202a1.605 1.605 0 00-.714.562 1.41 1.41 0 00-.247.848c-.004.331.081.62.252.867.176.246.418.438.725.576a2.59 2.59 0 001.064.206zM124.744 78a4.46 4.46 0 011.354.225c.451.147.862.39 1.235.731.372.337.671.798.896 1.382.226.584.339 1.317.339 2.197 0 .853-.093 1.61-.28 2.272-.182.66-.447 1.215-.794 1.668a3.383 3.383 0 01-1.257 1.03c-.49.235-1.045.352-1.665.352-.615 0-1.165-.106-1.648-.318a3.139 3.139 0 01-1.181-.895 2.89 2.89 0 01-.586-1.335h1.31c.119.44.353.804.704 1.091.354.284.822.426 1.401.426.849 0 1.518-.323 2.009-.97.494-.646.741-1.56.741-2.74h-.086a3.16 3.16 0 01-.714.68c-.276.19-.582.337-.918.44a3.655 3.655 0 01-1.074.154 3.723 3.723 0 01-1.735-.407 3.344 3.344 0 01-1.257-1.13 2.97 2.97 0 01-.467-1.648c0-.587.151-1.124.451-1.612.305-.49.731-.88 1.278-1.17.552-.291 1.2-.432 1.944-.422zm0 1.031a2.51 2.51 0 00-1.219.295 2.275 2.275 0 00-.853.787 1.996 1.996 0 00-.312 1.092c0 .4.1.763.301 1.091.204.325.481.584.832.778.355.19.757.286 1.208.286a2.482 2.482 0 001.719-.656c.222-.206.395-.439.521-.698.125-.262.188-.536.188-.82 0-.375-.104-.726-.312-1.054a2.309 2.309 0 00-.848-.796 2.439 2.439 0 00-1.225-.305zm5.984 8.695l4.919-8.489v-.075h-5.671v-1.03h7.045v1.087l-4.897 8.507h-1.396z" fill="#fff"/></g><defs><clipPath id="clip0_15_699"><path fill="#fff" d="M0 0h140v90H0z"/></clipPath></defs></svg>