<svg width="30" height="18" fill="none" xmlns="http://www.w3.org/2000/svg"><mask id="a" fill="#fff"><path fill-rule="evenodd" clip-rule="evenodd" d="M28.4 1.734c.209-.66 0-1.141-.922-1.141h-3.069c-.774 0-1.131.42-1.34.87 0 0-1.579 3.844-3.783 6.336-.715.721-1.042.961-1.43.961-.208 0-.477-.24-.477-.9V1.703c0-.78-.237-1.14-.893-1.14H11.66c-.477 0-.774.36-.774.72 0 .75 1.102.931 1.22 3.033v4.567c0 .99-.175 1.172-.565 1.172-1.043 0-3.575-3.874-5.093-8.288C6.152.893 5.852.563 5.078.563H1.98c-.894 0-1.042.42-1.042.87 0 .811 1.042 4.895 4.855 10.3 2.531 3.69 6.135 5.675 9.382 5.675 1.967 0 2.204-.451 2.204-1.202v-2.792c0-.9.18-1.05.805-1.05.447 0 1.251.239 3.068 2.01 2.085 2.103 2.442 3.063 3.604 3.063h3.068c.894 0 1.31-.45 1.072-1.32-.267-.872-1.28-2.132-2.591-3.634-.715-.84-1.787-1.77-2.115-2.222-.446-.6-.328-.84 0-1.38-.03 0 3.724-5.345 4.11-7.149"/></mask><path fill-rule="evenodd" clip-rule="evenodd" d="M28.4 1.734c.209-.66 0-1.141-.922-1.141h-3.069c-.774 0-1.131.42-1.34.87 0 0-1.579 3.844-3.783 6.336-.715.721-1.042.961-1.43.961-.208 0-.477-.24-.477-.9V1.703c0-.78-.237-1.14-.893-1.14H11.66c-.477 0-.774.36-.774.72 0 .75 1.102.931 1.22 3.033v4.567c0 .99-.175 1.172-.565 1.172-1.043 0-3.575-3.874-5.093-8.288C6.152.893 5.852.563 5.078.563H1.98c-.894 0-1.042.42-1.042.87 0 .811 1.042 4.895 4.855 10.3 2.531 3.69 6.135 5.675 9.382 5.675 1.967 0 2.204-.451 2.204-1.202v-2.792c0-.9.18-1.05.805-1.05.447 0 1.251.239 3.068 2.01 2.085 2.103 2.442 3.063 3.604 3.063h3.068c.894 0 1.31-.45 1.072-1.32-.267-.872-1.28-2.132-2.591-3.634-.715-.84-1.787-1.77-2.115-2.222-.446-.6-.328-.84 0-1.38-.03 0 3.724-5.345 4.11-7.149" fill="#fff"/><path d="M23.069 1.464L21.708.833l-.014.03-.013.03 1.388.57zm-3.783 6.335l1.065 1.057.03-.03.029-.033-1.124-.994zm-7.18-3.483h1.5v-.042l-.002-.043-1.497.085zM6.449 1.767l-1.421.48.002.008 1.419-.488zm-.655 9.965l1.237-.848-.006-.008-.006-.008-1.225.864zm15.459 2.643l1.065-1.056-.009-.01-.009-.008-1.047 1.074zm7.744 1.741l1.447-.396-.006-.023-.007-.022-1.434.441zm-2.591-3.633l-1.143.972.006.008.007.007 1.13-.987zm-2.115-2.222l1.213-.881-.004-.007-.005-.006-1.204.894zm0-1.38l1.283.777 1.38-2.278H24.29v1.5zm5.54-6.695c.157-.494.304-1.354-.236-2.128-.558-.8-1.462-.965-2.117-.965v3c.269 0-.07.074-.344-.319a.85.85 0 01-.158-.446c-.003-.08.013-.101-.005-.045l2.86.903zM27.479-.907H24.41v3h3.069v-3zm-3.069 0c-.68 0-1.29.192-1.79.573a3.056 3.056 0 00-.911 1.167l2.722 1.262a.671.671 0 01.04-.073c0-.002-.001 0-.007.007a.242.242 0 01-.07.05.222.222 0 01-.035.016c-.008.002-.01.002-.002.001a.38.38 0 01.053-.003v-3zm-1.34 2.37l-1.387-.57-.003.006-.011.027-.048.113a30.474 30.474 0 01-.943 1.959c-.648 1.231-1.529 2.693-2.514 3.808l2.247 1.987c1.218-1.378 2.23-3.083 2.921-4.397a33.454 33.454 0 001.102-2.307l.017-.039.004-.01.002-.004v-.002l-1.387-.57zm-4.848 5.28c-.17.171-.302.3-.41.397-.11.098-.175.148-.209.172-.032.022-.014.004.044-.016a.653.653 0 01.21-.036v3c.57 0 1.039-.198 1.439-.472.35-.239.7-.573 1.056-.932l-2.13-2.113zm-.365.517c.503 0 .816.288.94.477.116.178.084.27.084.123h-3c0 .513.101 1.055.404 1.518.31.475.86.882 1.572.882v-3zm1.023.6V1.703h-3V7.86h3zm0-6.157c0-.474-.057-1.175-.503-1.766-.524-.695-1.286-.875-1.89-.875v3c.034 0-.03.006-.143-.039a.87.87 0 01-.362-.28.619.619 0 01-.112-.215 1 1 0 01.01.175h3zm-2.393-2.64H11.66v3h4.826v-3zm-4.826 0c-1.317 0-2.274 1.043-2.274 2.22h3c0 .457-.363.78-.726.78v-3zm-2.274 2.22c0 .604.238 1.05.432 1.336.088.131.184.252.247.33.071.091.121.154.17.223.14.192.332.491.374 1.229l2.995-.17c-.077-1.364-.495-2.206-.937-2.817-.095-.132-.189-.25-.25-.327a2.916 2.916 0 01-.115-.15c-.017-.024.084.118.084.346h-3zm1.22 3.033v4.567h3V4.316h-3zm0 4.567c0 .211-.01.33-.018.386-.01.067-.008-.014.067-.15a1.127 1.127 0 01.78-.554c.06-.01.1-.01.106-.01v3c.194 0 .523-.02.874-.179a1.87 1.87 0 00.87-.814c.298-.544.322-1.2.322-1.68h-3zm.935-.328c.303 0 .448.124.375.076a2.042 2.042 0 01-.306-.28c-.316-.334-.719-.868-1.166-1.582-.89-1.419-1.854-3.387-2.578-5.49l-2.837.976c.795 2.31 1.857 4.487 2.873 6.108.505.806 1.026 1.517 1.526 2.047.248.263.525.518.825.718.272.18.724.427 1.288.427v-3zM7.869 1.287c-.16-.474-.406-1.09-.911-1.554-.582-.535-1.272-.67-1.88-.67v3c.092 0 .095.01.048-.005a.509.509 0 01-.199-.117c-.054-.05-.06-.077-.034-.027.013.024.031.062.055.12.023.056.05.126.079.213l2.842-.96zM5.078-.937H1.98v3h3.098v-3zm-3.098 0C1.335-.938.576-.79.02-.189c-.539.584-.584 1.28-.584 1.621h3c0-.11.03.152-.211.413-.257.278-.495.216-.246.216v-3zm-2.542 2.37c0 .412.11.979.274 1.583.175.648.446 1.463.835 2.413.78 1.902 2.049 4.373 4.02 7.168l2.451-1.73c-1.841-2.61-3-4.883-3.695-6.576a17.802 17.802 0 01-.715-2.058c-.151-.559-.17-.806-.17-.8h-3zm5.118 11.148c2.747 4.005 6.774 6.327 10.62 6.327v-3c-2.65 0-5.83-1.647-8.146-5.024L4.556 12.58zm10.62 6.327c.986 0 1.96-.09 2.68-.577.949-.642 1.023-1.62 1.023-2.125h-3c0 .131-.014.095.02-.002a.756.756 0 01.275-.358c.083-.056.093-.03-.091.003a5.365 5.365 0 01-.908.059v3zm3.704-2.702v-2.792h-3v2.792h3zm0-2.792c0-.09.002-.155.005-.203.003-.048.007-.066.006-.063a.542.542 0 01-.033.103 1.05 1.05 0 01-.675.598c-.09.024-.12.014.001.014v-3c-.291 0-1.187-.008-1.797.738-.28.34-.392.714-.444.99a4.478 4.478 0 00-.063.823h3zm-.696.45c-.194 0 .23-.16 2.02 1.585L22.3 13.3c-1.844-1.798-3.028-2.438-4.115-2.438v3zm2.003 1.567c.495.5.89.932 1.226 1.309.322.36.637.721.918 1.007.286.29.63.601 1.057.83.46.247.946.36 1.468.36v-3c-.04 0-.053-.003-.049-.002.005 0 .007.002-.003-.003-.032-.017-.126-.078-.335-.29-.214-.218-.452-.49-.82-.902a35.91 35.91 0 00-1.332-1.421l-2.13 2.112zm4.67 3.507h3.067v-3h-3.068v3zm3.067 0c.64 0 1.509-.156 2.109-.87.632-.751.596-1.67.41-2.348l-2.893.792c.023.087.006.078.015.001a.737.737 0 01.171-.375.661.661 0 01.275-.202c.037-.013.018.002-.087.002v3zm2.506-3.263c-.212-.69-.663-1.393-1.13-2.028-.49-.665-1.105-1.394-1.765-2.15l-2.26 1.973c.65.745 1.197 1.397 1.609 1.956.433.588.623.951.679 1.131l2.867-.882zm-2.883-4.164a22.398 22.398 0 00-1.29-1.351c-.203-.201-.376-.372-.519-.52a5.832 5.832 0 01-.218-.239l-.017-.021-2.426 1.763c.255.351.724.807 1.07 1.15.408.404.807.8 1.115 1.162l2.285-1.944zm-2.053-2.144c-.07-.095-.067-.108-.047-.06a.868.868 0 01.049.35c-.01.143-.052.226-.047.216a6.23 6.23 0 01.124-.215l-2.566-1.555c-.116.192-.457.706-.503 1.336-.055.745.288 1.322.582 1.717l2.408-1.79zM24.29 7.38c.323.036.953.342 1.214.62.146.247.274.69.286.865.003.276-.075.484-.083.506-.039.113-.084.195-.088.203a1.29 1.29 0 01-.03.055l-.012.02.005-.007.105-.158.425-.633c.358-.535.845-1.272 1.346-2.07.5-.793 1.025-1.663 1.454-2.46.402-.75.809-1.591.955-2.274l-2.933-.63c-.047.22-.255.722-.664 1.482a40.388 40.388 0 01-1.35 2.285 88.149 88.149 0 01-1.302 2c-.175.263-.318.474-.421.627a23.863 23.863 0 00-.177.27c-.006.01-.03.049-.056.098-.006.01-.052.095-.091.209-.008.022-.086.231-.083.508.012.174.14.618.286.866.26.277.89.583 1.214.618v-3z" fill="#fff" mask="url(#a)"/></svg>