<svg width="26" height="26" fill="none" xmlns="http://www.w3.org/2000/svg"><path d="M21.857 4.138a12.337 12.337 0 00-4.036-2.7A12.386 12.386 0 0013.051.5C6.19.5.6 6.063.6 12.887c0 2.188.577 4.313 1.658 6.188L.5 25.5l6.595-1.725a12.502 12.502 0 005.955 1.513c6.86 0 12.45-5.563 12.45-12.388 0-3.312-1.294-6.425-3.643-8.762zm-8.807 19.05c-1.859 0-3.68-.5-5.276-1.438l-.377-.225-3.92 1.025 1.043-3.8-.251-.387a10.292 10.292 0 01-1.583-5.476c0-5.674 4.648-10.3 10.352-10.3 2.764 0 5.364 1.076 7.311 3.026a10.186 10.186 0 013.028 7.287c.025 5.675-4.623 10.287-10.327 10.287zm5.679-7.7c-.314-.15-1.847-.9-2.123-1.013-.29-.1-.49-.15-.704.15-.214.313-.804 1.012-.98 1.213-.176.212-.364.237-.678.075-.314-.15-1.32-.488-2.5-1.538-.93-.825-1.546-1.838-1.734-2.15-.176-.313-.025-.475.138-.637.138-.138.314-.363.465-.538.15-.175.214-.313.314-.513.1-.212.05-.387-.025-.537-.075-.15-.704-1.675-.955-2.3-.251-.6-.515-.525-.703-.537H8.64c-.214 0-.54.075-.83.387-.276.313-1.08 1.063-1.08 2.587 0 1.525 1.118 3 1.269 3.2.15.213 2.198 3.338 5.314 4.675.741.325 1.32.513 1.771.65.742.238 1.42.2 1.96.126.603-.088 1.847-.75 2.098-1.476.264-.725.264-1.337.176-1.475-.088-.137-.276-.2-.59-.35z" fill="#fff"/></svg>