<svg width="18" height="14" viewBox="0 0 18 14" fill="none" xmlns="http://www.w3.org/2000/svg">
<path d="M1.8 14C1.305 14 0.8814 13.8288 0.5292 13.4864C0.1764 13.1434 0 12.7313 0 12.25V1.75C0 1.26875 0.1764 0.856917 0.5292 0.5145C0.8814 0.1715 1.305 0 1.8 0H16.2C16.695 0 17.1189 0.1715 17.4717 0.5145C17.8239 0.856917 18 1.26875 18 1.75V12.25C18 12.7313 17.8239 13.1434 17.4717 13.4864C17.1189 13.8288 16.695 14 16.2 14H1.8ZM9 7.72187C9.075 7.72187 9.1536 7.71079 9.2358 7.68862C9.3186 7.66704 9.3975 7.63438 9.4725 7.59063L15.84 3.71875C15.96 3.64583 16.05 3.55483 16.11 3.44575C16.17 3.33608 16.2 3.21563 16.2 3.08438C16.2 2.79271 16.0725 2.57396 15.8175 2.42813C15.5625 2.28229 15.3 2.28958 15.03 2.45L9 6.125L2.97 2.45C2.7 2.28958 2.4375 2.28579 2.1825 2.43863C1.9275 2.59204 1.8 2.80729 1.8 3.08438C1.8 3.23021 1.83 3.35767 1.89 3.46675C1.95 3.57642 2.04 3.66042 2.16 3.71875L8.5275 7.59063C8.6025 7.63438 8.6814 7.66704 8.7642 7.68862C8.8464 7.71079 8.925 7.72187 9 7.72187Z" fill="#242424"/>
</svg>
