<svg width="12" height="12" viewBox="0 0 12 12" fill="none" xmlns="http://www.w3.org/2000/svg">
<path d="M3.55968 10.56C3.61773 10.6182 3.6867 10.6644 3.76263 10.6959C3.83857 10.7274 3.91997 10.7436 4.00218 10.7436C4.08439 10.7436 4.16579 10.7274 4.24172 10.6959C4.31765 10.6644 4.38662 10.6182 4.44468 10.56L8.64968 6.355C8.69603 6.30875 8.7328 6.2538 8.75789 6.19332C8.78298 6.13283 8.7959 6.06799 8.7959 6.0025C8.7959 5.93702 8.78298 5.87218 8.75789 5.81169C8.7328 5.75121 8.69603 5.69626 8.64968 5.65L4.44468 1.445C4.19968 1.2 3.80468 1.20001 3.55968 1.445C3.31468 1.69 3.31468 2.08501 3.55968 2.33001L7.22968 6L3.55468 9.67501C3.31468 9.92001 3.31468 10.315 3.55968 10.56Z" fill="#242424"/>
</svg>
