<svg width="140" height="90" viewBox="0 0 140 90" fill="none" xmlns="http://www.w3.org/2000/svg">
<g clip-path="url(#clip0_15_699)">
<path fill-rule="evenodd" clip-rule="evenodd" d="M69.7872 0L42.9787 11.7028H16.8085C16.8085 11.7028 18 17.5542 21.0638 17.5542V21.4551H0C0 21.4551 1.19149 27.3065 4.25532 27.3065V88.8489L6.17021 88.4145V39.3209C6.17021 37.8911 7.44681 37.7958 7.44681 39.3209V88.1249L9.3617 87.6905V40.6811C9.3617 27.0279 21.0638 27.0279 21.0638 40.6811V85.0356L22.9787 84.6012V36.4612C22.9787 35.0314 24.2553 35.0314 24.2553 36.4612V84.3116L26.1702 83.8771V31.2074C26.1702 17.5542 37.8723 17.5542 37.8723 31.2074V81.2223L39.7872 80.7878V31.2074C39.7872 29.7886 41.0638 29.7886 41.0638 31.2074V80.4982L42.9787 80.0638V26.4706C43.0496 23.6842 45.0213 16.774 52.3404 13.6533L69.7872 6.13003V0ZM51.0784 78.2262L48.0851 78.9053V36.5015V35.9443V33.4365C48.0851 20.6192 69.7872 14.2105 69.7872 14.2105L69.9769 16.3216L70.1277 14.2105C70.1277 14.2105 91.9149 20.659 91.9149 33.5559C91.9149 34.4796 91.8963 35.271 91.8619 35.9443H91.9149V68.9617L89.1354 69.5923V47.25C89.1354 42.2399 87.6056 39.2169 85.4875 39.1261C83.3694 39.2169 81.8395 42.2399 81.8395 47.25V71.2475L78.8817 71.9185V47.25C78.8817 42.2399 77.3519 39.2169 75.2338 39.1261C73.1157 39.2169 71.5858 42.2399 71.5858 47.25V73.5737L68.628 74.2448V47.25C68.628 42.2399 67.0981 39.217 64.98 39.1261C62.8619 39.217 61.3321 42.2399 61.3321 47.25V75.9L58.3743 76.571V47.25C58.3743 42.2399 56.8444 39.217 54.7263 39.1261C52.6082 39.217 51.0784 42.2399 51.0784 47.25V78.2262ZM98.9362 67.3688L97.0213 67.8032V26.4706C96.9504 23.6842 94.9787 16.774 87.6596 13.6533L70.2128 6.13003V0L97.0213 11.7028H123.191C123.191 11.7028 122 17.5542 118.936 17.5542V21.4551H140C140 21.4551 138.809 27.3065 135.745 27.3065V59.0181L133.83 59.4525V39.3209C133.83 37.8911 132.553 37.7957 132.553 39.3209V59.7422L130.638 60.1766V40.6811C130.638 27.0278 118.936 27.0278 118.936 40.6811V62.8314L117.021 63.2659V36.4612C117.021 35.0314 115.745 35.0314 115.745 36.4612V63.5555L113.83 63.9899V31.2074C113.83 17.5542 102.128 17.5542 102.128 31.2074V66.6448L100.213 67.0792V31.2074C100.213 29.7886 98.9362 29.7886 98.9362 31.2074V67.3688ZM88.2979 35.9443V33.5559C88.2979 26.3785 76.0993 20.8459 70 18.9768H69.9039C63.7735 20.8625 51.7021 26.3407 51.7021 33.4365V35.9443H88.2979Z" fill="#EFDABC"/>
<path d="M42.9787 11.7028V12.2028H43.0831L43.1788 12.161L42.9787 11.7028ZM69.7872 0H70.2872V-0.76383L69.5872 -0.458241L69.7872 0ZM16.8085 11.7028V11.2028H16.1964L16.3186 11.8026L16.8085 11.7028ZM21.0638 17.5542H21.5638V17.0542H21.0638V17.5542ZM21.0638 21.4551V21.9551H21.5638V21.4551H21.0638ZM0 21.4551V20.9551H-0.612073L-0.489946 21.5549L0 21.4551ZM4.25532 27.3065H4.75532V26.8065H4.25532V27.3065ZM4.25532 88.8489H3.75532V89.4751L4.36594 89.3365L4.25532 88.8489ZM6.17021 88.4145L6.28084 88.9021L6.67021 88.8138V88.4145H6.17021ZM7.44681 88.1249H6.94681V88.751L7.55743 88.6125L7.44681 88.1249ZM9.3617 87.6905L9.47233 88.1781L9.8617 88.0897V87.6905H9.3617ZM21.0638 85.0356H20.5638V85.6618L21.1745 85.5232L21.0638 85.0356ZM22.9787 84.6012L23.0893 85.0888L23.4787 85.0004V84.6012H22.9787ZM24.2553 84.3116H23.7553V84.9377L24.3659 84.7992L24.2553 84.3116ZM26.1702 83.8771L26.2808 84.3647L26.6702 84.2764V83.8771H26.1702ZM37.8723 81.2223H37.3723V81.8484L37.983 81.7099L37.8723 81.2223ZM39.7872 80.7878L39.8979 81.2755L40.2872 81.1871V80.7878H39.7872ZM41.0638 80.4982H40.5638V81.1244L41.1745 80.9858L41.0638 80.4982ZM42.9787 80.0638L43.0893 80.5514L43.4787 80.4631V80.0638H42.9787ZM42.9787 26.4706L42.4787 26.4579V26.4706H42.9787ZM52.3404 13.6533L52.5365 14.1132L52.5384 14.1124L52.3404 13.6533ZM69.7872 6.13003L69.9852 6.58916L70.2872 6.45893V6.13003H69.7872ZM48.0851 78.9053H47.5851V79.5315L48.1957 79.3929L48.0851 78.9053ZM51.0784 78.2262L51.189 78.7139L51.5784 78.6255V78.2262H51.0784ZM69.7872 14.2105L70.2852 14.1658L70.2307 13.5582L69.6456 13.731L69.7872 14.2105ZM69.9769 16.3216L69.4789 16.3663L70.4756 16.3572L69.9769 16.3216ZM70.1277 14.2105L70.2696 13.7311L69.6732 13.5546L69.6289 14.1749L70.1277 14.2105ZM91.8619 35.9443L91.3625 35.9187L91.3357 36.4443H91.8619V35.9443ZM91.9149 35.9443H92.4149V35.4443H91.9149V35.9443ZM91.9149 68.9617L92.0255 69.4493L92.4149 69.361V68.9617H91.9149ZM89.1354 69.5923H88.6354V70.2184L89.2461 70.0799L89.1354 69.5923ZM85.4875 39.1261L85.5089 38.6266L85.4875 38.6257L85.4661 38.6266L85.4875 39.1261ZM81.8395 71.2475L81.9501 71.7351L82.3395 71.6468V71.2475H81.8395ZM78.8817 71.9185H78.3817V72.5447L78.9923 72.4061L78.8817 71.9185ZM75.2338 39.1261L75.2552 38.6266L75.2338 38.6257L75.2123 38.6266L75.2338 39.1261ZM71.5858 73.5737L71.6964 74.0614L72.0858 73.973V73.5737H71.5858ZM68.628 74.2448H68.128V74.8709L68.7386 74.7324L68.628 74.2448ZM64.98 39.1261L65.0015 38.6266L64.98 38.6257L64.9586 38.6266L64.98 39.1261ZM61.3321 75.9L61.4427 76.3876L61.8321 76.2993V75.9H61.3321ZM58.3743 76.571H57.8743V77.1972L58.4849 77.0586L58.3743 76.571ZM54.7263 39.1261L54.7477 38.6266L54.7263 38.6257L54.7049 38.6266L54.7263 39.1261ZM97.0213 67.8032H96.5213V68.4294L97.1319 68.2908L97.0213 67.8032ZM98.9362 67.3688L99.0468 67.8564L99.4362 67.7681V67.3688H98.9362ZM97.0213 26.4706H97.5214L97.5211 26.4579L97.0213 26.4706ZM87.6596 13.6533L87.4616 14.1124L87.4635 14.1132L87.6596 13.6533ZM70.2128 6.13003H69.7128V6.45893L70.0148 6.58916L70.2128 6.13003ZM70.2128 0L70.4128 -0.458241L69.7128 -0.76383V0H70.2128ZM97.0213 11.7028L96.8212 12.161L96.9169 12.2028H97.0213V11.7028ZM123.191 11.7028L123.681 11.8026L123.804 11.2028H123.191V11.7028ZM118.936 17.5542V17.0542H118.436V17.5542H118.936ZM118.936 21.4551H118.436V21.9551H118.936V21.4551ZM140 21.4551L140.49 21.5549L140.612 20.9551H140V21.4551ZM135.745 27.3065V26.8065H135.245V27.3065H135.745ZM135.745 59.0181L135.855 59.5057L136.245 59.4174V59.0181H135.745ZM133.83 59.4525H133.33V60.0787L133.94 59.9401L133.83 59.4525ZM132.553 59.7422L132.664 60.2298L133.053 60.1414V59.7422H132.553ZM130.638 60.1766H130.138V60.8027L130.749 60.6642L130.638 60.1766ZM118.936 62.8314L119.047 63.319L119.436 63.2307V62.8314H118.936ZM117.021 63.2659H116.521V63.892L117.132 63.7535L117.021 63.2659ZM115.745 63.5555L115.855 64.0431L116.245 63.9548V63.5555H115.745ZM113.83 63.9899H113.33V64.6161L113.94 64.4775L113.83 63.9899ZM102.128 66.6448L102.238 67.1324L102.628 67.044V66.6448H102.128ZM100.213 67.0792H99.7128V67.7053L100.323 67.5668L100.213 67.0792ZM88.2979 35.9443V36.4443H88.7979V35.9443H88.2979ZM70 18.9768L70.1465 18.4987L70.0749 18.4768H70V18.9768ZM69.9039 18.9768V18.4768H69.8287L69.7569 18.4989L69.9039 18.9768ZM51.7021 35.9443H51.2021V36.4443H51.7021V35.9443ZM43.1788 12.161L69.9873 0.458241L69.5872 -0.458241L42.7787 11.2445L43.1788 12.161ZM16.8085 12.2028H42.9787V11.2028H16.8085V12.2028ZM21.0638 17.0542C20.4723 17.0542 19.9438 16.7755 19.4619 16.2883C18.976 15.7971 18.5689 15.123 18.2405 14.4175C17.9142 13.7164 17.6778 13.0107 17.5227 12.4774C17.4453 12.2116 17.3888 11.9906 17.3518 11.8371C17.3333 11.7603 17.3197 11.7005 17.3109 11.6606C17.3064 11.6406 17.3032 11.6256 17.3011 11.6158C17.3001 11.611 17.2994 11.6075 17.2989 11.6053C17.2987 11.6042 17.2986 11.6035 17.2985 11.6031C17.2984 11.6029 17.2984 11.6028 17.2984 11.6028C17.2984 11.6028 17.2984 11.6029 17.2984 11.6028C17.2984 11.6029 17.2985 11.603 16.8085 11.7028C16.3186 11.8026 16.3186 11.8027 16.3186 11.8029C16.3186 11.8029 16.3187 11.8031 16.3187 11.8033C16.3188 11.8036 16.3189 11.8041 16.319 11.8046C16.3192 11.8056 16.3195 11.807 16.3198 11.8087C16.3206 11.8122 16.3216 11.8171 16.3229 11.8233C16.3255 11.8357 16.3294 11.8536 16.3344 11.8764C16.3445 11.9222 16.3595 11.9881 16.3796 12.0714C16.4197 12.2378 16.4802 12.474 16.5625 12.7567C16.7265 13.3205 16.9794 14.0777 17.3339 14.8395C17.6864 15.5968 18.1516 16.3856 18.7509 16.9915C19.3541 17.6014 20.1235 18.0542 21.0638 18.0542V17.0542ZM21.5638 21.4551V17.5542H20.5638V21.4551H21.5638ZM0 21.9551H21.0638V20.9551H0V21.9551ZM4.25532 26.8065C3.66378 26.8065 3.13526 26.5279 2.65337 26.0406C2.16754 25.5494 1.76038 24.8753 1.43203 24.1698C1.10573 23.4687 0.869283 22.7631 0.714142 22.2297C0.636819 21.9639 0.580273 21.7429 0.543261 21.5894C0.524766 21.5126 0.511179 21.4529 0.50234 21.4129C0.497922 21.3929 0.494693 21.3779 0.492634 21.3682C0.491604 21.3633 0.490867 21.3598 0.490419 21.3576C0.490196 21.3566 0.490045 21.3558 0.489966 21.3554C0.489927 21.3552 0.489905 21.3551 0.489902 21.3551C0.4899 21.3551 0.489911 21.3552 0.48991 21.3552C0.489926 21.3552 0.489946 21.3553 0 21.4551C-0.489946 21.5549 -0.489917 21.555 -0.489883 21.5552C-0.489866 21.5553 -0.489827 21.5555 -0.489793 21.5556C-0.489723 21.556 -0.489635 21.5564 -0.489529 21.5569C-0.489316 21.5579 -0.48903 21.5593 -0.488669 21.5611C-0.487947 21.5645 -0.486929 21.5694 -0.485611 21.5756C-0.482975 21.5881 -0.479139 21.6059 -0.474082 21.6288C-0.463971 21.6745 -0.448968 21.7404 -0.428899 21.8237C-0.388784 21.9901 -0.328308 22.2263 -0.246057 22.509C-0.0820488 23.0729 0.170865 23.83 0.525417 24.5918C0.877921 25.3492 1.3431 26.1379 1.94238 26.7438C2.54559 27.3537 3.31495 27.8065 4.25532 27.8065V26.8065ZM4.75532 88.8489V27.3065H3.75532V88.8489H4.75532ZM4.36594 89.3365L6.28084 88.9021L6.05959 87.9269L4.1447 88.3613L4.36594 89.3365ZM5.67021 39.3209V88.4145H6.67021V39.3209H5.67021ZM7.94681 39.3209C7.94681 38.8769 7.85485 38.4922 7.66593 38.203C7.473 37.9076 7.16262 37.6992 6.78986 37.7132C6.42592 37.7267 6.13244 37.9476 5.94909 38.2329C5.76512 38.5191 5.67021 38.8936 5.67021 39.3209H6.67021C6.67021 39.0334 6.73488 38.8598 6.79028 38.7736C6.84629 38.6865 6.87196 38.7108 6.82717 38.7125C6.80761 38.7132 6.79387 38.7073 6.79044 38.7053C6.78859 38.7042 6.80463 38.713 6.82875 38.7499C6.87919 38.8271 6.94681 39.0024 6.94681 39.3209H7.94681ZM7.94681 88.1249V39.3209H6.94681V88.1249H7.94681ZM7.55743 88.6125L9.47233 88.1781L9.25108 87.2028L7.33618 87.6373L7.55743 88.6125ZM8.8617 40.6811V87.6905H9.8617V40.6811H8.8617ZM21.5638 40.6811C21.5638 37.2021 20.8191 34.5402 19.656 32.7308C18.4915 30.9192 16.8866 29.9412 15.2128 29.9412C13.5389 29.9412 11.9341 30.9192 10.7696 32.7308C9.60642 34.5402 8.8617 37.2021 8.8617 40.6811H9.8617C9.8617 37.3334 10.5797 34.8754 11.6108 33.2715C12.6404 31.6698 13.9611 30.9412 15.2128 30.9412C16.4645 30.9412 17.7851 31.6698 18.8148 33.2715C19.8458 34.8754 20.5638 37.3334 20.5638 40.6811H21.5638ZM21.5638 85.0356V40.6811H20.5638V85.0356H21.5638ZM21.1745 85.5232L23.0893 85.0888L22.8681 84.1136L20.9532 84.548L21.1745 85.5232ZM22.4787 36.4612V84.6012H23.4787V36.4612H22.4787ZM24.7553 36.4612C24.7553 36.0346 24.6607 35.6616 24.4713 35.3787C24.2799 35.093 23.9781 34.8889 23.617 34.8889C23.2559 34.8889 22.9541 35.093 22.7627 35.3787C22.5734 35.6616 22.4787 36.0346 22.4787 36.4612H23.4787C23.4787 36.1729 23.5437 36.0098 23.5937 35.9351C23.6416 35.8635 23.659 35.8889 23.617 35.8889C23.5751 35.8889 23.5924 35.8635 23.6404 35.9351C23.6904 36.0098 23.7553 36.1729 23.7553 36.4612H24.7553ZM24.7553 84.3116V36.4612H23.7553V84.3116H24.7553ZM24.3659 84.7992L26.2808 84.3647L26.0596 83.3895L24.1447 83.8239L24.3659 84.7992ZM25.6702 31.2074V83.8771H26.6702V31.2074H25.6702ZM38.3723 31.2074C38.3723 27.7285 37.6276 25.0665 36.4645 23.2571C35.3 21.4456 33.6951 20.4675 32.0213 20.4675C30.3474 20.4675 28.7426 21.4456 27.5781 23.2571C26.4149 25.0665 25.6702 27.7285 25.6702 31.2074H26.6702C26.6702 27.8598 27.3883 25.4017 28.4193 23.7978C29.4489 22.1961 30.7696 21.4675 32.0213 21.4675C33.273 21.4675 34.5936 22.1961 35.6233 23.7978C36.6543 25.4017 37.3723 27.8598 37.3723 31.2074H38.3723ZM38.3723 81.2223V31.2074H37.3723V81.2223H38.3723ZM37.983 81.7099L39.8979 81.2755L39.6766 80.3002L37.7617 80.7347L37.983 81.7099ZM39.2872 31.2074V80.7878H40.2872V31.2074H39.2872ZM41.5638 31.2074C41.5638 30.7829 41.4689 30.4113 41.2788 30.1296C41.0867 29.8449 40.7848 29.6433 40.4255 29.6433C40.0662 29.6433 39.7644 29.8449 39.5722 30.1296C39.3822 30.4113 39.2872 30.7829 39.2872 31.2074H40.2872C40.2872 30.9226 40.3519 30.7621 40.4012 30.689C40.4484 30.619 40.4657 30.6433 40.4255 30.6433C40.3854 30.6433 40.4027 30.619 40.4499 30.689C40.4992 30.7621 40.5638 30.9226 40.5638 31.2074H41.5638ZM41.5638 80.4982V31.2074H40.5638V80.4982H41.5638ZM41.1745 80.9858L43.0893 80.5514L42.8681 79.5762L40.9532 80.0106L41.1745 80.9858ZM42.4787 26.4706V80.0638H43.4787V26.4706H42.4787ZM52.1443 13.1933C44.5936 16.4128 42.5532 23.5388 42.4789 26.4579L43.4786 26.4833C43.5461 23.8296 45.449 17.1352 52.5365 14.1132L52.1443 13.1933ZM69.5893 5.6709L52.1424 13.1941L52.5384 14.1124L69.9852 6.58916L69.5893 5.6709ZM69.2872 0V6.13003H70.2872V0H69.2872ZM48.1957 79.3929L51.189 78.7139L50.9677 77.7386L47.9745 78.4177L48.1957 79.3929ZM47.5851 36.5015V78.9053H48.5851V36.5015H47.5851ZM47.5851 35.9443V36.5015H48.5851V35.9443H47.5851ZM47.5851 33.4365V35.9443H48.5851V33.4365H47.5851ZM69.7872 14.2105C69.6456 13.731 69.6454 13.7311 69.6451 13.7311C69.6449 13.7312 69.6445 13.7313 69.6441 13.7314C69.6433 13.7317 69.6421 13.732 69.6407 13.7325C69.6377 13.7334 69.6334 13.7346 69.6278 13.7363C69.6167 13.7396 69.6004 13.7446 69.5792 13.751C69.5367 13.764 69.4743 13.7832 69.3933 13.8087C69.2313 13.8597 68.995 13.9359 68.6948 14.0372C68.0947 14.2397 67.2391 14.5429 66.2131 14.9469C64.1626 15.7543 61.4242 16.9669 58.6819 18.5865C53.2444 21.7979 47.5851 26.7333 47.5851 33.4365H48.5851C48.5851 27.3224 53.7768 22.6448 59.1904 19.4475C61.8736 17.8628 64.5608 16.6722 66.5795 15.8774C67.588 15.4803 68.4279 15.1827 69.0146 14.9847C69.3079 14.8857 69.5378 14.8116 69.6937 14.7625C69.7717 14.738 69.8311 14.7197 69.8708 14.7076C69.8906 14.7015 69.9054 14.6971 69.9152 14.6941C69.92 14.6927 69.9236 14.6916 69.9259 14.6909C69.9271 14.6906 69.9279 14.6903 69.9284 14.6902C69.9286 14.6901 69.9287 14.6901 69.9288 14.6901C69.9289 14.69 69.9288 14.6901 69.7872 14.2105ZM70.4749 16.2768L70.2852 14.1658L69.2892 14.2553L69.4789 16.3663L70.4749 16.2768ZM69.6289 14.1749L69.4782 16.286L70.4756 16.3572L70.6264 14.2461L69.6289 14.1749ZM92.4149 33.5559C92.4149 26.8135 86.7351 21.8481 81.276 18.6166C78.523 16.987 75.7739 15.7669 73.7155 14.9545C72.6855 14.5481 71.8265 14.243 71.224 14.0392C70.9228 13.9372 70.6855 13.8606 70.5229 13.8093C70.4416 13.7836 70.3789 13.7643 70.3363 13.7512C70.3149 13.7447 70.2986 13.7398 70.2874 13.7364C70.2818 13.7347 70.2775 13.7335 70.2746 13.7326C70.2731 13.7321 70.2719 13.7318 70.2711 13.7315C70.2707 13.7314 70.2703 13.7313 70.2701 13.7312C70.2698 13.7311 70.2696 13.7311 70.1277 14.2105C69.9858 14.69 69.9857 14.69 69.9858 14.69C69.9859 14.69 69.986 14.69 69.9862 14.6901C69.9867 14.6903 69.9876 14.6905 69.9887 14.6908C69.991 14.6915 69.9946 14.6926 69.9995 14.6941C70.0093 14.697 70.0242 14.7015 70.0441 14.7076C70.0839 14.7198 70.1435 14.7382 70.2218 14.7629C70.3784 14.8123 70.6092 14.8868 70.9036 14.9864C71.4926 15.1857 72.3358 15.4851 73.3484 15.8847C75.375 16.6845 78.0728 17.8825 80.7666 19.4771C86.2011 22.6941 91.4149 27.4015 91.4149 33.5559H92.4149ZM92.3612 35.9698C92.3962 35.2861 92.4149 34.486 92.4149 33.5559H91.4149C91.4149 34.4733 91.3965 35.2559 91.3625 35.9187L92.3612 35.9698ZM91.9149 35.4443H91.8619V36.4443H91.9149V35.4443ZM92.4149 68.9617V35.9443H91.4149V68.9617H92.4149ZM89.2461 70.0799L92.0255 69.4493L91.8043 68.4741L89.0248 69.1047L89.2461 70.0799ZM88.6354 47.25V69.5923H89.6354V47.25H88.6354ZM85.4661 39.6257C86.2579 39.6596 87.0428 40.2418 87.6523 41.554C88.2582 42.8584 88.6354 44.7872 88.6354 47.25H89.6354C89.6354 44.7027 89.2478 42.615 88.5592 41.1327C87.8743 39.6581 86.8352 38.6835 85.5089 38.6266L85.4661 39.6257ZM82.3395 47.25C82.3395 44.7872 82.7168 42.8584 83.3227 41.554C83.9322 40.2418 84.7171 39.6596 85.5089 39.6257L85.4661 38.6266C84.1398 38.6835 83.1007 39.6581 82.4158 41.1327C81.7272 42.615 81.3395 44.7027 81.3395 47.25H82.3395ZM82.3395 71.2475V47.25H81.3395V71.2475H82.3395ZM78.9923 72.4061L81.9501 71.7351L81.7289 70.7599L78.7711 71.4309L78.9923 72.4061ZM78.3817 47.25V71.9185H79.3817V47.25H78.3817ZM75.2123 39.6257C76.0042 39.6596 76.7891 40.2418 77.3986 41.554C78.0045 42.8584 78.3817 44.7872 78.3817 47.25H79.3817C79.3817 44.7027 78.994 42.615 78.3055 41.1327C77.6206 39.6581 76.5815 38.6835 75.2552 38.6266L75.2123 39.6257ZM72.0858 47.25C72.0858 44.7872 72.4631 42.8584 73.069 41.554C73.6785 40.2418 74.4633 39.6596 75.2552 39.6257L75.2123 38.6266C73.8861 38.6835 72.847 39.6581 72.162 41.1327C71.4735 42.615 71.0858 44.7027 71.0858 47.25H72.0858ZM72.0858 73.5737V47.25H71.0858V73.5737H72.0858ZM68.7386 74.7324L71.6964 74.0614L71.4752 73.0861L68.5174 73.7572L68.7386 74.7324ZM68.128 47.25V74.2448H69.128V47.25H68.128ZM64.9586 39.6257C65.7505 39.6596 66.5353 40.2418 67.1448 41.554C67.7508 42.8584 68.128 44.7872 68.128 47.25H69.128C69.128 44.7027 68.7403 42.615 68.0518 41.1327C67.3668 39.6581 66.3277 38.6835 65.0015 38.6266L64.9586 39.6257ZM61.8321 47.25C61.8321 44.7872 62.2093 42.8584 62.8152 41.554C63.4248 40.2418 64.2096 39.6596 65.0015 39.6257L64.9586 38.6266C63.6324 38.6835 62.5933 39.6581 61.9083 41.1327C61.2198 42.615 60.8321 44.7027 60.8321 47.25H61.8321ZM61.8321 75.9V47.25H60.8321V75.9H61.8321ZM58.4849 77.0586L61.4427 76.3876L61.2215 75.4124L58.2637 76.0834L58.4849 77.0586ZM57.8743 47.25V76.571H58.8743V47.25H57.8743ZM54.7049 39.6257C55.4967 39.6596 56.2816 40.2418 56.8911 41.554C57.497 42.8584 57.8743 44.7872 57.8743 47.25H58.8743C58.8743 44.7027 58.4866 42.615 57.798 41.1327C57.1131 39.6581 56.074 38.6835 54.7477 38.6266L54.7049 39.6257ZM51.5784 47.25C51.5784 44.7872 51.9556 42.8584 52.5615 41.554C53.171 40.2418 53.9559 39.6596 54.7477 39.6257L54.7049 38.6266C53.3786 38.6835 52.3395 39.6581 51.6546 41.1327C50.966 42.615 50.5784 44.7027 50.5784 47.25H51.5784ZM51.5784 78.2262V47.25H50.5784V78.2262H51.5784ZM97.1319 68.2908L99.0468 67.8564L98.8255 66.8812L96.9107 67.3156L97.1319 68.2908ZM97.5213 67.8032V26.4706H96.5213V67.8032H97.5213ZM97.5211 26.4579C97.4468 23.5388 95.4064 16.4128 87.8557 13.1933L87.4635 14.1132C94.551 17.1352 96.4539 23.8296 96.5214 26.4833L97.5211 26.4579ZM87.8576 13.1941L70.4108 5.6709L70.0148 6.58916L87.4616 14.1124L87.8576 13.1941ZM70.7128 6.13003V0H69.7128V6.13003H70.7128ZM70.0127 0.458241L96.8212 12.161L97.2213 11.2445L70.4128 -0.458241L70.0127 0.458241ZM97.0213 12.2028H123.191V11.2028H97.0213V12.2028ZM123.191 11.7028C122.702 11.603 122.702 11.6029 122.702 11.6028C122.702 11.6029 122.702 11.6028 122.702 11.6028C122.702 11.6028 122.702 11.6029 122.702 11.6031C122.701 11.6035 122.701 11.6042 122.701 11.6053C122.701 11.6075 122.7 11.611 122.699 11.6158C122.697 11.6256 122.694 11.6406 122.689 11.6606C122.68 11.7005 122.667 11.7603 122.648 11.8371C122.611 11.9906 122.555 12.2116 122.477 12.4774C122.322 13.0107 122.086 13.7164 121.759 14.4175C121.431 15.123 121.024 15.7971 120.538 16.2883C120.056 16.7755 119.528 17.0542 118.936 17.0542V18.0542C119.877 18.0542 120.646 17.6014 121.249 16.9915C121.848 16.3856 122.314 15.5968 122.666 14.8395C123.021 14.0777 123.274 13.3205 123.438 12.7567C123.52 12.474 123.58 12.2378 123.62 12.0714C123.64 11.9881 123.655 11.9222 123.666 11.8764C123.671 11.8536 123.674 11.8357 123.677 11.8233C123.678 11.8171 123.679 11.8122 123.68 11.8087C123.681 11.807 123.681 11.8056 123.681 11.8046C123.681 11.8041 123.681 11.8036 123.681 11.8033C123.681 11.8031 123.681 11.8029 123.681 11.8029C123.681 11.8027 123.681 11.8026 123.191 11.7028ZM118.436 17.5542V21.4551H119.436V17.5542H118.436ZM118.936 21.9551H140V20.9551H118.936V21.9551ZM140 21.4551C139.51 21.3553 139.51 21.3552 139.51 21.3552C139.51 21.3552 139.51 21.3551 139.51 21.3551C139.51 21.3551 139.51 21.3552 139.51 21.3554C139.51 21.3558 139.51 21.3566 139.51 21.3576C139.509 21.3598 139.508 21.3633 139.507 21.3682C139.505 21.3779 139.502 21.3929 139.498 21.4129C139.489 21.4529 139.475 21.5126 139.457 21.5894C139.42 21.7429 139.363 21.9639 139.286 22.2297C139.131 22.7631 138.894 23.4687 138.568 24.1698C138.24 24.8753 137.832 25.5494 137.347 26.0406C136.865 26.5279 136.336 26.8065 135.745 26.8065V27.8065C136.685 27.8065 137.454 27.3537 138.058 26.7438C138.657 26.1379 139.122 25.3492 139.475 24.5918C139.829 23.83 140.082 23.0729 140.246 22.509C140.328 22.2263 140.389 21.9901 140.429 21.8237C140.449 21.7404 140.464 21.6745 140.474 21.6288C140.479 21.6059 140.483 21.588 140.486 21.5756C140.487 21.5694 140.488 21.5645 140.489 21.5611C140.489 21.5593 140.489 21.5579 140.49 21.5569C140.49 21.5564 140.49 21.556 140.49 21.5556C140.49 21.5555 140.49 21.5553 140.49 21.5552C140.49 21.555 140.49 21.5549 140 21.4551ZM135.245 27.3065V59.0181H136.245V27.3065H135.245ZM133.94 59.9401L135.855 59.5057L135.634 58.5305L133.719 58.9649L133.94 59.9401ZM134.33 59.4525V39.3209H133.33V59.4525H134.33ZM134.33 39.3209C134.33 38.8935 134.235 38.519 134.051 38.2329C133.868 37.9476 133.574 37.7267 133.21 37.7131C132.837 37.6992 132.527 37.9076 132.334 38.203C132.145 38.4921 132.053 38.8769 132.053 39.3209H133.053C133.053 39.0023 133.121 38.8271 133.171 38.7499C133.195 38.713 133.211 38.7042 133.21 38.7053C133.206 38.7073 133.192 38.7132 133.173 38.7124C133.128 38.7108 133.154 38.6865 133.21 38.7736C133.265 38.8598 133.33 39.0334 133.33 39.3209H134.33ZM132.053 39.3209V59.7422H133.053V39.3209H132.053ZM130.749 60.6642L132.664 60.2298L132.443 59.2545L130.528 59.689L130.749 60.6642ZM131.138 60.1766V40.6811H130.138V60.1766H131.138ZM131.138 40.6811C131.138 37.2021 130.394 34.5402 129.23 32.7308C128.066 30.9192 126.461 29.9412 124.787 29.9412C123.113 29.9412 121.509 30.9192 120.344 32.7308C119.181 34.5402 118.436 37.2021 118.436 40.6811H119.436C119.436 37.3334 120.154 34.8754 121.185 33.2715C122.215 31.6697 123.536 30.9412 124.787 30.9412C126.039 30.9412 127.36 31.6697 128.389 33.2715C129.42 34.8754 130.138 37.3334 130.138 40.6811H131.138ZM118.436 40.6811V62.8314H119.436V40.6811H118.436ZM117.132 63.7535L119.047 63.319L118.826 62.3438L116.911 62.7782L117.132 63.7535ZM117.521 63.2659V36.4612H116.521V63.2659H117.521ZM117.521 36.4612C117.521 36.0346 117.427 35.6615 117.237 35.3787C117.046 35.0929 116.744 34.8888 116.383 34.8888C116.022 34.8888 115.72 35.0929 115.529 35.3787C115.339 35.6615 115.245 36.0346 115.245 36.4612H116.245C116.245 36.1729 116.31 36.0098 116.36 35.9351C116.408 35.8634 116.425 35.8888 116.383 35.8888C116.341 35.8888 116.358 35.8634 116.406 35.9351C116.456 36.0098 116.521 36.1729 116.521 36.4612H117.521ZM115.245 36.4612V63.5555H116.245V36.4612H115.245ZM113.94 64.4775L115.855 64.0431L115.634 63.0679L113.719 63.5023L113.94 64.4775ZM114.33 63.9899V31.2074H113.33V63.9899H114.33ZM114.33 31.2074C114.33 27.7285 113.585 25.0665 112.422 23.2571C111.257 21.4456 109.653 20.4675 107.979 20.4675C106.305 20.4675 104.7 21.4456 103.536 23.2571C102.372 25.0665 101.628 27.7285 101.628 31.2074H102.628C102.628 27.8598 103.346 25.4017 104.377 23.7978C105.406 22.1961 106.727 21.4675 107.979 21.4675C109.23 21.4675 110.551 22.1961 111.581 23.7978C112.612 25.4017 113.33 27.8598 113.33 31.2074H114.33ZM101.628 31.2074V66.6448H102.628V31.2074H101.628ZM100.323 67.5668L102.238 67.1324L102.017 66.1571L100.102 66.5916L100.323 67.5668ZM100.713 67.0792V31.2074H99.7128V67.0792H100.713ZM100.713 31.2074C100.713 30.7829 100.618 30.4113 100.428 30.1296C100.236 29.8449 99.9338 29.6433 99.5745 29.6433C99.2152 29.6433 98.9133 29.8449 98.7212 30.1296C98.5311 30.4113 98.4362 30.7829 98.4362 31.2074H99.4362C99.4362 30.9226 99.5008 30.7621 99.5501 30.689C99.5973 30.619 99.6146 30.6433 99.5745 30.6433C99.5343 30.6433 99.5516 30.619 99.5988 30.689C99.6481 30.7621 99.7128 30.9226 99.7128 31.2074H100.713ZM98.4362 31.2074V67.3688H99.4362V31.2074H98.4362ZM87.7979 33.5559V35.9443H88.7979V33.5559H87.7979ZM69.8535 19.4548C72.8715 20.3797 77.3992 22.2124 81.1609 24.6932C83.0415 25.9334 84.7107 27.3226 85.9053 28.8241C87.099 30.3246 87.7979 31.9095 87.7979 33.5559H88.7979C88.7979 31.6137 87.9719 29.8155 86.6878 28.2015C85.4046 26.5886 83.6429 25.1321 81.7114 23.8583C77.849 21.3112 73.2278 19.443 70.1465 18.4987L69.8535 19.4548ZM69.9039 19.4768H70V18.4768H69.9039V19.4768ZM52.2021 33.4365C52.2021 31.8106 52.8929 30.2445 54.0752 28.7603C55.2583 27.2751 56.9124 25.8998 58.7791 24.6704C62.5129 22.2114 67.0167 20.388 70.0509 19.4547L69.7569 18.4989C66.6607 19.4513 62.0637 21.3098 58.2291 23.8353C56.3117 25.0981 54.5648 26.5407 53.293 28.1373C52.0203 29.7349 51.2021 31.5145 51.2021 33.4365H52.2021ZM52.2021 35.9443V33.4365H51.2021V35.9443H52.2021ZM88.2979 35.4443H51.7021V36.4443H88.2979V35.4443Z" fill="#EFDABC"/>
<path d="M119.575 68.6819V68.1429H123.087V68.6819H121.614V73.1603H121.047V68.6819H119.575Z" fill="white"/>
<path d="M124.853 73.2387C124.514 73.2387 124.222 73.1587 123.977 72.9986C123.733 72.8369 123.545 72.6115 123.412 72.3224C123.281 72.0317 123.215 71.6936 123.215 71.3082C123.215 70.9227 123.281 70.583 123.412 70.289C123.545 69.9934 123.729 69.7631 123.965 69.5981C124.203 69.4315 124.481 69.3482 124.798 69.3482C124.981 69.3482 125.161 69.3809 125.34 69.4462C125.518 69.5116 125.681 69.6177 125.827 69.7647C125.973 69.9101 126.09 70.1028 126.177 70.3429C126.264 70.583 126.307 70.8786 126.307 71.2298V71.4748H123.599V70.975H125.758C125.758 70.7627 125.719 70.5732 125.639 70.4066C125.562 70.24 125.45 70.1085 125.306 70.0122C125.162 69.9158 124.993 69.8676 124.798 69.8676C124.583 69.8676 124.397 69.9248 124.24 70.0391C124.084 70.1518 123.965 70.2988 123.881 70.4801C123.797 70.6614 123.755 70.8558 123.755 71.0632V71.3964C123.755 71.6806 123.801 71.9215 123.892 72.1191C123.985 72.3151 124.114 72.4645 124.279 72.5674C124.443 72.6687 124.635 72.7193 124.853 72.7193C124.994 72.7193 125.123 72.6981 125.237 72.6556C125.353 72.6115 125.453 72.5462 125.536 72.4596C125.62 72.3714 125.685 72.262 125.731 72.1313L126.252 72.2881C126.197 72.4776 126.105 72.6442 125.976 72.7879C125.846 72.93 125.686 73.0411 125.495 73.1211C125.305 73.1995 125.091 73.2387 124.853 73.2387Z" fill="white"/>
<path d="M128.162 73.2485C127.939 73.2485 127.737 73.2036 127.556 73.1138C127.374 73.0223 127.23 72.8908 127.124 72.7193C127.017 72.5462 126.964 72.3371 126.964 72.0921C126.964 71.8766 127.003 71.7018 127.082 71.5679C127.162 71.4323 127.268 71.3261 127.4 71.2494C127.533 71.1726 127.679 71.1154 127.839 71.0779C128.001 71.0387 128.163 71.0076 128.327 70.9848C128.54 70.9554 128.713 70.9333 128.846 70.9186C128.98 70.9023 129.077 70.8754 129.138 70.8378C129.201 70.8002 129.232 70.7349 129.232 70.6418V70.6222C129.232 70.3805 129.17 70.1926 129.047 70.0587C128.925 69.9248 128.74 69.8578 128.491 69.8578C128.234 69.8578 128.032 69.9183 127.885 70.0391C127.739 70.16 127.636 70.289 127.576 70.4262L127.064 70.2302C127.156 70.0016 127.278 69.8235 127.43 69.6961C127.584 69.5671 127.752 69.4773 127.933 69.4266C128.116 69.3744 128.296 69.3482 128.473 69.3482C128.586 69.3482 128.715 69.3629 128.862 69.3923C129.01 69.4201 129.152 69.4781 129.289 69.5663C129.428 69.6545 129.543 69.7876 129.635 69.9656C129.726 70.1436 129.772 70.3821 129.772 70.681V73.1603H129.232V72.6507H129.205C129.168 72.7324 129.107 72.8198 129.022 72.9129C128.936 73.006 128.823 73.0852 128.681 73.1505C128.539 73.2158 128.366 73.2485 128.162 73.2485ZM128.244 72.7291C128.458 72.7291 128.638 72.6842 128.784 72.5944C128.932 72.5045 129.043 72.3886 129.118 72.2465C129.194 72.1044 129.232 71.9549 129.232 71.7982V71.269C129.209 71.2984 129.159 71.3253 129.081 71.3498C129.005 71.3727 128.917 71.3931 128.816 71.4111C128.717 71.4274 128.62 71.4421 128.525 71.4552C128.432 71.4666 128.357 71.4764 128.299 71.4846C128.159 71.5042 128.028 71.536 127.906 71.5801C127.785 71.6226 127.688 71.6871 127.613 71.7737C127.54 71.8586 127.503 71.9745 127.503 72.1215C127.503 72.3224 127.573 72.4743 127.711 72.5772C127.852 72.6785 128.029 72.7291 128.244 72.7291Z" fill="white"/>
<path d="M130.279 69.9362V69.3972H133.133V69.9362H131.98V73.1603H131.441V69.9362H130.279Z" fill="white"/>
<path d="M133.92 74.5715V69.3972H134.442V69.995H134.506C134.545 69.9297 134.6 69.8464 134.67 69.7451C134.742 69.6422 134.844 69.5508 134.977 69.4707C135.111 69.3891 135.292 69.3482 135.521 69.3482C135.817 69.3482 136.078 69.4275 136.303 69.5859C136.529 69.7443 136.705 69.9689 136.832 70.2596C136.958 70.5503 137.021 70.8933 137.021 71.2886C137.021 71.6871 136.958 72.0325 136.832 72.3249C136.705 72.6156 136.53 72.841 136.306 73.0011C136.081 73.1595 135.823 73.2387 135.53 73.2387C135.305 73.2387 135.124 73.1987 134.988 73.1187C134.853 73.037 134.748 72.9447 134.675 72.8418C134.602 72.7373 134.545 72.6507 134.506 72.5821H134.46V74.5715H133.92ZM134.451 71.2788C134.451 71.563 134.49 71.8137 134.567 72.0309C134.645 72.2465 134.759 72.4155 134.908 72.538C135.058 72.6589 135.241 72.7193 135.457 72.7193C135.683 72.7193 135.871 72.6556 136.022 72.5282C136.174 72.3992 136.289 72.2261 136.365 72.0088C136.443 71.79 136.482 71.5466 136.482 71.2788C136.482 71.0142 136.444 70.7757 136.367 70.5634C136.293 70.3494 136.179 70.1804 136.027 70.0563C135.876 69.9305 135.686 69.8676 135.457 69.8676C135.238 69.8676 135.053 69.9272 134.904 70.0465C134.754 70.1641 134.641 70.329 134.565 70.5413C134.489 70.752 134.451 70.9978 134.451 71.2788Z" fill="white"/>
<path d="M108.762 78.1316V87.726H107.43V79.3497H107.366L104.681 80.905V79.7245L107.43 78.1316H108.762Z" fill="white"/>
<path d="M115.448 87.8572C114.71 87.8572 114.059 87.7432 113.493 87.5152C112.931 87.2841 112.492 86.9671 112.177 86.5642C111.862 86.1582 111.707 85.6959 111.71 85.1775C111.707 84.7715 111.798 84.3967 111.984 84.0532C112.17 83.7065 112.424 83.4176 112.747 83.1865C113.072 82.9522 113.436 82.8039 113.837 82.7414V82.6852C113.31 82.5665 112.892 82.3089 112.58 81.9122C112.269 81.5125 112.115 81.058 112.118 80.549C112.115 80.0618 112.256 79.6261 112.542 79.2419C112.829 78.8578 113.223 78.5548 113.724 78.3331C114.229 78.1113 114.803 78.0005 115.448 78.0005C116.085 78.0005 116.654 78.1113 117.155 78.3331C117.656 78.5548 118.05 78.8578 118.337 79.2419C118.627 79.6261 118.773 80.0618 118.777 80.549C118.773 81.058 118.614 81.5125 118.299 81.9122C117.988 82.3089 117.574 82.5665 117.059 82.6852V82.7414C117.456 82.8039 117.814 82.9522 118.133 83.1865C118.451 83.4176 118.705 83.7065 118.895 84.0532C119.085 84.3967 119.182 84.7715 119.185 85.1775C119.182 85.6959 119.02 86.1582 118.702 86.5642C118.387 86.9671 117.948 87.2841 117.386 87.5152C116.828 87.7432 116.182 87.8572 115.448 87.8572ZM115.448 86.8265C115.945 86.8265 116.375 86.7563 116.736 86.6157C117.098 86.4752 117.377 86.2768 117.574 86.0207C117.771 85.7646 117.871 85.4648 117.875 85.1213C117.871 84.759 117.764 84.4389 117.553 84.1609C117.341 83.8829 117.053 83.6643 116.688 83.505C116.327 83.3458 115.913 83.2661 115.448 83.2661C114.979 83.2661 114.56 83.3458 114.191 83.505C113.826 83.6643 113.538 83.8829 113.327 84.1609C113.119 84.4389 113.017 84.759 113.02 85.1213C113.017 85.4648 113.112 85.7646 113.305 86.0207C113.502 86.2768 113.783 86.4752 114.148 86.6157C114.513 86.7563 114.946 86.8265 115.448 86.8265ZM115.448 82.273C115.841 82.273 116.19 82.2042 116.495 82.0668C116.803 81.9294 117.044 81.7373 117.22 81.4906C117.395 81.2439 117.485 80.955 117.488 80.6239C117.485 80.2991 117.397 80.0165 117.225 79.776C117.053 79.5324 116.815 79.345 116.511 79.2138C116.207 79.0795 115.852 79.0124 115.448 79.0124C115.036 79.0124 114.676 79.0795 114.368 79.2138C114.06 79.345 113.822 79.5324 113.654 79.776C113.486 80.0165 113.403 80.2991 113.407 80.6239C113.403 80.955 113.488 81.2439 113.659 81.4906C113.835 81.7373 114.077 81.9294 114.384 82.0668C114.692 82.2042 115.047 82.273 115.448 82.273Z" fill="white"/>
<path d="M124.744 78.0005C125.195 78.0036 125.646 78.0785 126.098 78.2253C126.549 78.3721 126.96 78.6157 127.333 78.9562C127.705 79.2935 128.004 79.7541 128.229 80.3382C128.455 80.9222 128.568 81.6546 128.568 82.5353C128.568 83.3879 128.475 84.1453 128.288 84.8074C128.106 85.4664 127.841 86.0223 127.494 86.4752C127.15 86.928 126.731 87.2716 126.237 87.5058C125.747 87.74 125.192 87.8572 124.572 87.8572C123.957 87.8572 123.407 87.751 122.924 87.5386C122.444 87.3231 122.05 87.0248 121.743 86.6438C121.438 86.2597 121.243 85.8146 121.157 85.3087H122.467C122.586 85.749 122.82 86.1129 123.171 86.4002C123.525 86.6844 123.993 86.8265 124.572 86.8265C125.421 86.8265 126.09 86.5033 126.581 85.8568C127.075 85.2103 127.322 84.2968 127.322 83.1162H127.236C127.035 83.3786 126.797 83.605 126.522 83.7955C126.246 83.986 125.94 84.1328 125.604 84.2359C125.267 84.3389 124.909 84.3905 124.53 84.3905C123.899 84.3905 123.321 84.2546 122.795 83.9829C122.272 83.708 121.854 83.3317 121.538 82.8539C121.227 82.3729 121.071 81.8232 121.071 81.2048C121.071 80.6177 121.222 80.0805 121.522 79.5933C121.827 79.1029 122.253 78.7125 122.8 78.4221C123.352 78.1316 124 77.9911 124.744 78.0005ZM124.744 79.0311C124.293 79.0311 123.887 79.1295 123.525 79.3262C123.167 79.5199 122.883 79.7822 122.672 80.1133C122.464 80.4412 122.36 80.8051 122.36 81.2048C122.36 81.6046 122.46 81.9684 122.661 82.2964C122.865 82.6212 123.142 82.8804 123.493 83.074C123.848 83.2646 124.25 83.3598 124.701 83.3598C125.041 83.3598 125.358 83.302 125.652 83.1865C125.945 83.0678 126.201 82.907 126.42 82.7039C126.642 82.4978 126.815 82.2651 126.941 82.0059C127.066 81.7436 127.129 81.4703 127.129 81.1861C127.129 80.8113 127.025 80.46 126.817 80.132C126.613 79.8041 126.33 79.5386 125.969 79.3356C125.611 79.1326 125.203 79.0311 124.744 79.0311Z" fill="white"/>
<path d="M130.728 87.726L135.647 79.2372V79.1623H129.976V78.1316H137.021V79.2185L132.124 87.726H130.728Z" fill="white"/>
</g>
<defs>
<clipPath id="clip0_15_699">
<rect width="140" height="90" fill="white"/>
</clipPath>
</defs>
</svg>
