<svg width="12" height="20" viewBox="0 0 12 20" fill="none" xmlns="http://www.w3.org/2000/svg">
<path d="M10.8799 19.12C10.7638 19.2364 10.6259 19.3288 10.474 19.3918C10.3221 19.4548 10.1593 19.4872 9.99492 19.4872C9.8305 19.4872 9.66769 19.4548 9.51583 19.3918C9.36397 19.3288 9.22603 19.2364 9.10991 19.12L0.699915 10.71C0.607212 10.6175 0.533664 10.5076 0.483483 10.3866C0.433301 10.2656 0.407472 10.136 0.407472 10.005C0.407472 9.87403 0.433301 9.74434 0.483483 9.62337C0.533664 9.5024 0.607212 9.39251 0.699915 9.29999L9.10992 0.889994C9.59992 0.399995 10.3899 0.399995 10.8799 0.889995C11.3699 1.37999 11.3699 2.17 10.8799 2.66L3.53992 9.99999L10.8899 17.35C11.3699 17.84 11.3699 18.63 10.8799 19.12Z" fill="#242424"/>
</svg>
