<svg width="12" height="20" viewBox="0 0 12 20" fill="none" xmlns="http://www.w3.org/2000/svg">
<path d="M1.12009 19.12C1.2362 19.2364 1.37414 19.3288 1.526 19.3918C1.67786 19.4548 1.84067 19.4872 2.00508 19.4872C2.1695 19.4872 2.33231 19.4548 2.48417 19.3918C2.63603 19.3288 2.77397 19.2364 2.89009 19.12L11.3001 10.71C11.3928 10.6175 11.4663 10.5076 11.5165 10.3866C11.5667 10.2656 11.5925 10.136 11.5925 10.005C11.5925 9.87403 11.5667 9.74434 11.5165 9.62337C11.4663 9.5024 11.3928 9.39251 11.3001 9.29999L2.89008 0.889994C2.40008 0.399995 1.61008 0.399995 1.12009 0.889995C0.630085 1.37999 0.630085 2.17 1.12009 2.66L8.46008 9.99999L1.11009 17.35C0.630087 17.84 0.630087 18.63 1.12009 19.12Z" fill="#242424"/>
</svg>
