<svg width="10" height="7" viewBox="0 0 10 7" fill="none" xmlns="http://www.w3.org/2000/svg">
<path d="M0.439965 1.06001C0.381761 1.11807 0.335582 1.18704 0.304074 1.26297C0.272566 1.3389 0.256347 1.4203 0.256347 1.50251C0.256347 1.58472 0.272566 1.66612 0.304074 1.74205C0.335582 1.81799 0.381761 1.88695 0.439965 1.94501L4.64496 6.15001C4.69122 6.19636 4.74617 6.23314 4.80665 6.25823C4.86714 6.28332 4.93198 6.29623 4.99746 6.29623C5.06295 6.29623 5.12779 6.28332 5.18828 6.25823C5.24876 6.23314 5.30371 6.19636 5.34996 6.15001L9.55496 1.94501C9.79996 1.70001 9.79996 1.30501 9.55496 1.06001C9.30996 0.815013 8.91496 0.815013 8.66996 1.06001L4.99996 4.73001L1.32496 1.05501C1.07996 0.815013 0.684965 0.815013 0.439965 1.06001Z" fill="white"/>
</svg>
