<svg width="6" height="10" viewBox="0 0 6 10" fill="none" xmlns="http://www.w3.org/2000/svg">
<path d="M0.560654 0.439965C0.618711 0.381761 0.687679 0.335582 0.763611 0.304074C0.839542 0.272566 0.920944 0.256348 1.00315 0.256348C1.08536 0.256348 1.16676 0.272566 1.24269 0.304074C1.31863 0.335582 1.3876 0.381761 1.44565 0.439965L5.65065 4.64496C5.697 4.69122 5.73378 4.74617 5.75887 4.80665C5.78396 4.86714 5.79688 4.93198 5.79688 4.99746C5.79688 5.06295 5.78396 5.12779 5.75887 5.18828C5.73378 5.24876 5.697 5.30371 5.65065 5.34996L1.44565 9.55497C1.20065 9.79996 0.805654 9.79996 0.560654 9.55497C0.315654 9.30997 0.315654 8.91496 0.560654 8.66996L4.23065 4.99996L0.555654 1.32496C0.315654 1.07996 0.315654 0.684965 0.560654 0.439965Z" fill="#242424"/>
</svg>
