<svg width="6" height="10" viewBox="0 0 6 10" fill="none" xmlns="http://www.w3.org/2000/svg">
<path d="M5.43935 0.439965C5.38129 0.381761 5.31232 0.335582 5.23639 0.304074C5.16046 0.272566 5.07906 0.256348 4.99685 0.256348C4.91464 0.256348 4.83324 0.272566 4.75731 0.304074C4.68137 0.335582 4.6124 0.381761 4.55435 0.439965L0.349347 4.64496C0.302995 4.69122 0.266221 4.74617 0.241131 4.80665C0.21604 4.86714 0.203125 4.93198 0.203125 4.99746C0.203125 5.06295 0.21604 5.12779 0.241131 5.18828C0.266221 5.24876 0.302995 5.30371 0.349347 5.34996L4.55435 9.55497C4.79935 9.79996 5.19435 9.79996 5.43935 9.55497C5.68435 9.30997 5.68435 8.91496 5.43935 8.66996L1.76935 4.99996L5.44435 1.32496C5.68435 1.07996 5.68435 0.684965 5.43935 0.439965Z" fill="#6F6F6F"/>
</svg>
