<svg width="30" height="18" viewBox="0 0 30 18" fill="none" xmlns="http://www.w3.org/2000/svg">
<mask id="path-1-inside-1_20_405" fill="white">
<path fill-rule="evenodd" clip-rule="evenodd" d="M28.4004 1.73438C28.609 1.07344 28.4004 0.592969 27.4775 0.592969H24.409C23.635 0.592969 23.2775 1.01367 23.0689 1.46367C23.0689 1.46367 21.4904 5.30742 19.2861 7.79941C18.5713 8.52012 18.2438 8.76035 17.8564 8.76035C17.6479 8.76035 17.3795 8.52012 17.3795 7.85977V1.70332C17.3795 0.922852 17.1416 0.5625 16.4859 0.5625H11.6602C11.1832 0.5625 10.8855 0.922852 10.8855 1.2832C10.8855 2.03379 11.9877 2.21426 12.1066 4.31602V8.88281C12.1066 9.87363 11.9309 10.0547 11.5406 10.0547C10.4982 10.0547 7.96641 6.18105 6.44766 1.76719C6.15234 0.892969 5.85234 0.5625 5.07773 0.5625H1.97988C1.08633 0.5625 0.9375 0.982617 0.9375 1.4332C0.9375 2.24414 1.97988 6.32754 5.79258 11.7322C8.32441 15.4236 11.9285 17.4076 15.1752 17.4076C17.1416 17.4076 17.3795 16.957 17.3795 16.2064V13.4139C17.3795 12.5133 17.5582 12.3633 18.184 12.3633C18.6305 12.3633 19.435 12.6029 21.252 14.3748C23.3367 16.4766 23.6941 17.4375 24.8561 17.4375H27.924C28.8176 17.4375 29.2348 16.9869 28.9963 16.1162C28.7285 15.2455 27.7154 13.9846 26.4047 12.4834C25.6898 11.6432 24.6176 10.7121 24.29 10.2615C23.8436 9.66094 23.9625 9.4207 24.29 8.88047C24.2602 8.88047 28.0137 3.53555 28.4004 1.73203"/>
</mask>
<path fill-rule="evenodd" clip-rule="evenodd" d="M28.4004 1.73438C28.609 1.07344 28.4004 0.592969 27.4775 0.592969H24.409C23.635 0.592969 23.2775 1.01367 23.0689 1.46367C23.0689 1.46367 21.4904 5.30742 19.2861 7.79941C18.5713 8.52012 18.2438 8.76035 17.8564 8.76035C17.6479 8.76035 17.3795 8.52012 17.3795 7.85977V1.70332C17.3795 0.922852 17.1416 0.5625 16.4859 0.5625H11.6602C11.1832 0.5625 10.8855 0.922852 10.8855 1.2832C10.8855 2.03379 11.9877 2.21426 12.1066 4.31602V8.88281C12.1066 9.87363 11.9309 10.0547 11.5406 10.0547C10.4982 10.0547 7.96641 6.18105 6.44766 1.76719C6.15234 0.892969 5.85234 0.5625 5.07773 0.5625H1.97988C1.08633 0.5625 0.9375 0.982617 0.9375 1.4332C0.9375 2.24414 1.97988 6.32754 5.79258 11.7322C8.32441 15.4236 11.9285 17.4076 15.1752 17.4076C17.1416 17.4076 17.3795 16.957 17.3795 16.2064V13.4139C17.3795 12.5133 17.5582 12.3633 18.184 12.3633C18.6305 12.3633 19.435 12.6029 21.252 14.3748C23.3367 16.4766 23.6941 17.4375 24.8561 17.4375H27.924C28.8176 17.4375 29.2348 16.9869 28.9963 16.1162C28.7285 15.2455 27.7154 13.9846 26.4047 12.4834C25.6898 11.6432 24.6176 10.7121 24.29 10.2615C23.8436 9.66094 23.9625 9.4207 24.29 8.88047C24.2602 8.88047 28.0137 3.53555 28.4004 1.73203" fill="white"/>
<path d="M23.0689 1.46367L21.708 0.832838L21.694 0.863046L21.6814 0.893845L23.0689 1.46367ZM19.2861 7.79941L20.3511 8.85574L20.3813 8.82532L20.4097 8.79323L19.2861 7.79941ZM12.1066 4.31602H13.6066V4.2736L13.6042 4.23126L12.1066 4.31602ZM6.44766 1.76719L5.02653 2.24725L5.02927 2.25523L6.44766 1.76719ZM5.79258 11.7322L7.02958 10.8838L7.02399 10.8756L7.01828 10.8676L5.79258 11.7322ZM21.252 14.3748L22.3169 13.3185L22.3081 13.3096L22.2992 13.3009L21.252 14.3748ZM28.9963 16.1162L30.443 15.72L30.4369 15.6975L30.43 15.6753L28.9963 16.1162ZM26.4047 12.4834L25.2622 13.4554L25.2685 13.4627L25.2748 13.47L26.4047 12.4834ZM24.29 10.2615L25.5033 9.37955L25.4986 9.37305L25.4938 9.3666L24.29 10.2615ZM24.29 8.88047L25.5727 9.65814L26.9536 7.38047H24.29V8.88047ZM29.8308 2.18583C29.9867 1.69189 30.1335 0.831679 29.5935 0.0575966C29.0363 -0.741132 28.1323 -0.907031 27.4775 -0.907031V2.09297C27.7457 2.09297 27.4074 2.1673 27.133 1.77404C27.0062 1.59227 26.9779 1.41828 26.9748 1.32763C26.9721 1.2476 26.9877 1.22664 26.9699 1.28292L29.8308 2.18583ZM27.4775 -0.907031H24.409V2.09297H27.4775V-0.907031ZM24.409 -0.907031C23.729 -0.907031 23.1186 -0.714567 22.6187 -0.33422C22.1423 0.028235 21.8706 0.482248 21.708 0.832838L24.4298 2.09451C24.4404 2.07171 24.4493 2.05473 24.4564 2.04244C24.4634 2.0302 24.4678 2.02379 24.4693 2.0218C24.4707 2.01992 24.4687 2.02286 24.4629 2.02892C24.4569 2.03513 24.4477 2.04381 24.4351 2.05336C24.4225 2.06302 24.4084 2.07202 24.3937 2.07967C24.3791 2.08733 24.3668 2.09207 24.3584 2.09473C24.3503 2.09733 24.3488 2.09702 24.3558 2.09598C24.3631 2.09492 24.3802 2.09297 24.409 2.09297V-0.907031ZM23.0689 1.46367C21.6814 0.893845 21.6815 0.893681 21.6815 0.893532C21.6815 0.893502 21.6816 0.893367 21.6816 0.893307C21.6817 0.893185 21.6817 0.893121 21.6817 0.893115C21.6817 0.893102 21.6816 0.893319 21.6814 0.893764C21.6811 0.894653 21.6803 0.896452 21.6792 0.89914C21.677 0.904517 21.6732 0.91345 21.668 0.925782C21.6577 0.950449 21.6415 0.98869 21.6196 1.03925C21.576 1.14041 21.51 1.29061 21.4235 1.47985C21.2503 1.85892 20.9965 2.3914 20.677 2.99805C20.0285 4.22932 19.1482 5.69137 18.1626 6.80559L20.4097 8.79323C21.6284 7.41546 22.6395 5.70964 23.3313 4.39604C23.682 3.73026 23.9605 3.14605 24.1522 2.72654C24.2482 2.51649 24.3227 2.34693 24.374 2.22815C24.3996 2.16874 24.4195 2.12197 24.4333 2.08911C24.4402 2.07268 24.4456 2.05973 24.4495 2.05041C24.4514 2.04575 24.453 2.042 24.4542 2.03917C24.4547 2.03776 24.4552 2.03658 24.4556 2.03563C24.4558 2.03516 24.456 2.03474 24.4561 2.03439C24.4562 2.03421 24.4563 2.03399 24.4563 2.0339C24.4564 2.03369 24.4565 2.0335 23.0689 1.46367ZM18.2212 6.74309C18.0512 6.91446 17.9186 7.04263 17.8108 7.13994C17.7017 7.23839 17.6364 7.28827 17.602 7.31181C17.57 7.33365 17.5881 7.3165 17.6463 7.29606C17.7133 7.27259 17.7883 7.26035 17.8564 7.26035V10.2604C18.4258 10.2604 18.8946 10.0622 19.2949 9.78848C19.645 9.54921 19.9943 9.21545 20.3511 8.85574L18.2212 6.74309ZM17.8564 7.26035C18.3594 7.26035 18.6717 7.54781 18.7955 7.73728C18.9119 7.91549 18.8795 8.00643 18.8795 7.85977H15.8795C15.8795 8.37345 15.9812 8.91469 16.284 9.3781C16.5941 9.85278 17.1449 10.2604 17.8564 10.2604V7.26035ZM18.8795 7.85977V1.70332H15.8795V7.85977H18.8795ZM18.8795 1.70332C18.8795 1.22923 18.8217 0.528139 18.3765 -0.0626057C17.852 -0.758404 17.0901 -0.9375 16.4859 -0.9375V2.0625C16.5197 2.0625 16.4557 2.06812 16.3432 2.02298C16.2135 1.97086 16.0804 1.87528 15.9807 1.74307C15.8911 1.62416 15.8699 1.53067 15.8692 1.52751C15.8691 1.527 15.8795 1.57676 15.8795 1.70332H18.8795ZM16.4859 -0.9375H11.6602V2.0625H16.4859V-0.9375ZM11.6602 -0.9375C10.3433 -0.9375 9.38555 0.105993 9.38555 1.2832H12.3855C12.3855 1.73971 12.0232 2.0625 11.6602 2.0625V-0.9375ZM9.38555 1.2832C9.38555 1.88652 9.62374 2.333 9.81765 2.61931C9.90643 2.75041 10.0025 2.87127 10.0647 2.94984C10.1364 3.04037 10.1863 3.10318 10.2359 3.17179C10.3751 3.36423 10.5673 3.6633 10.609 4.40077L13.6042 4.23126C13.527 2.86698 13.1087 2.02493 12.6671 1.41405C12.5715 1.28183 12.478 1.16492 12.4164 1.08711C12.3453 0.997343 12.318 0.961248 12.3016 0.937039C12.2851 0.912727 12.3855 1.05518 12.3855 1.2832H9.38555ZM10.6066 4.31602V8.88281H13.6066V4.31602H10.6066ZM10.6066 8.88281C10.6066 9.09434 10.5967 9.21237 10.5885 9.26949C10.5789 9.336 10.5804 9.25458 10.6547 9.11916C10.7494 8.94639 10.9225 8.75931 11.1727 8.64552C11.2802 8.5966 11.3732 8.57471 11.4352 8.56459C11.4951 8.55481 11.5344 8.55469 11.5406 8.55469V11.5547C11.7345 11.5547 12.0638 11.5359 12.4147 11.3763C12.8076 11.1976 13.0978 10.9033 13.2852 10.5615C13.5832 10.0181 13.6066 9.3628 13.6066 8.88281H10.6066ZM11.5406 8.55469C11.8436 8.55469 11.9887 8.6794 11.9164 8.63122C11.8724 8.6019 11.7691 8.52006 11.6097 8.35111C11.2941 8.01656 10.8914 7.48345 10.4436 6.76933C9.55382 5.35011 8.58974 3.38239 7.86604 1.27914L5.02927 2.25523C5.82433 4.56586 6.88553 6.74188 7.90191 8.36295C8.40727 9.16897 8.92788 9.88013 9.4276 10.4098C9.67588 10.673 9.95334 10.9283 10.2532 11.128C10.5248 11.3089 10.9771 11.5547 11.5406 11.5547V8.55469ZM7.86876 1.28713C7.70875 0.813432 7.46292 0.197268 6.9576 -0.267271C6.37607 -0.801864 5.68643 -0.9375 5.07773 -0.9375V2.0625C5.17027 2.0625 5.17275 2.07311 5.12623 2.05845C5.10092 2.05047 5.06645 2.0367 5.02779 2.01454C4.98886 1.99223 4.95487 1.96667 4.92727 1.94129C4.87324 1.89163 4.86684 1.8641 4.89323 1.91379C4.90613 1.93808 4.92445 1.97621 4.94774 2.03308C4.971 2.08986 4.99709 2.16002 5.02655 2.24724L7.86876 1.28713ZM5.07773 -0.9375H1.97988V2.0625H5.07773V-0.9375ZM1.97988 -0.9375C1.3353 -0.9375 0.575536 -0.789007 0.021269 -0.188393C-0.517932 0.395896 -0.5625 1.09265 -0.5625 1.4332H2.4375C2.4375 1.32317 2.46735 1.58457 2.22595 1.84616C1.96948 2.12407 1.73091 2.0625 1.97988 2.0625V-0.9375ZM-0.5625 1.4332C-0.5625 1.84481 -0.451505 2.41199 -0.287982 3.0163C-0.112643 3.66429 0.157788 4.47892 0.547423 5.42914C1.32737 7.33124 2.59553 9.80241 4.56687 12.5969L7.01828 10.8676C5.17693 8.25735 4.01755 5.98449 3.32313 4.29097C2.97559 3.44339 2.74713 2.74733 2.60787 2.23271C2.4568 1.67441 2.4375 1.42706 2.4375 1.4332H-0.5625ZM4.55558 12.5807C7.30289 16.5862 11.3303 18.9076 15.1752 18.9076V15.9076C12.5267 15.9076 9.34594 14.261 7.02958 10.8838L4.55558 12.5807ZM15.1752 18.9076C16.1623 18.9076 17.1364 18.8171 17.8551 18.331C18.8049 17.6886 18.8795 16.7118 18.8795 16.2064H15.8795C15.8795 16.3373 15.8651 16.3006 15.8997 16.2042C15.9205 16.1462 15.9559 16.0742 16.0116 16.0017C16.0675 15.9291 16.1269 15.8781 16.1744 15.846C16.2574 15.7899 16.2665 15.8161 16.0826 15.8494C15.9048 15.8815 15.6187 15.9076 15.1752 15.9076V18.9076ZM18.8795 16.2064V13.4139H15.8795V16.2064H18.8795ZM18.8795 13.4139C18.8795 13.3246 18.8818 13.259 18.885 13.2114C18.8882 13.1631 18.8918 13.1448 18.8912 13.1477C18.8907 13.1503 18.8833 13.1898 18.8584 13.2511C18.8324 13.315 18.7861 13.4053 18.7076 13.5012C18.5286 13.7198 18.3111 13.8151 18.1833 13.8495C18.0938 13.8735 18.0635 13.8633 18.184 13.8633V10.8633C17.8929 10.8633 16.9975 10.8545 16.3866 11.6005C16.1072 11.9416 15.9954 12.3151 15.9432 12.5918C15.8911 12.8678 15.8795 13.154 15.8795 13.4139H18.8795ZM18.184 13.8633C17.9896 13.8633 18.4146 13.7031 20.2047 15.4487L22.2992 13.3009C20.4553 11.5028 19.2714 10.8633 18.184 10.8633V13.8633ZM20.187 15.4312C20.6823 15.9305 21.0762 16.3632 21.413 16.7399C21.7352 17.1002 22.0503 17.4614 22.3312 17.7467C22.6173 18.0373 22.9609 18.3481 23.3876 18.5767C23.8484 18.8236 24.3342 18.9375 24.8561 18.9375V15.9375C24.8159 15.9375 24.8033 15.9336 24.8072 15.9345C24.8124 15.9358 24.8135 15.9373 24.8042 15.9323C24.772 15.915 24.678 15.8542 24.469 15.6419C24.2547 15.4243 24.0168 15.1511 23.6494 14.7402C23.2965 14.3456 22.864 13.87 22.3169 13.3185L20.187 15.4312ZM24.8561 18.9375H27.924V15.9375H24.8561V18.9375ZM27.924 18.9375C28.5642 18.9375 29.4329 18.7823 30.0329 18.0686C30.6648 17.3168 30.6288 16.3982 30.443 15.72L27.5496 16.5125C27.5731 16.5985 27.5564 16.5899 27.5655 16.5133C27.5763 16.4223 27.62 16.2767 27.7365 16.1382C27.8486 16.0047 27.9659 15.9518 28.0106 15.9363C28.0479 15.9233 28.0289 15.9375 27.924 15.9375V18.9375ZM30.43 15.6753C30.2176 14.9846 29.767 14.2816 29.2993 13.6466C28.81 12.9823 28.1949 12.253 27.5346 11.4968L25.2748 13.47C25.9253 14.215 26.4721 14.8668 26.8839 15.4258C27.3173 16.0143 27.5072 16.3772 27.5626 16.5571L30.43 15.6753ZM27.5472 11.5114C27.1404 11.0333 26.6456 10.5444 26.2571 10.16C26.0536 9.95866 25.8809 9.78795 25.7385 9.64002C25.6683 9.56721 25.6126 9.50723 25.5696 9.45855C25.5484 9.43458 25.5323 9.4156 25.5205 9.40116C25.5084 9.38642 25.5033 9.37952 25.5033 9.37955L23.0767 11.1435C23.3319 11.4945 23.8009 11.9501 24.1472 12.2927C24.5553 12.6965 24.9541 13.0932 25.2622 13.4554L27.5472 11.5114ZM25.4938 9.3666C25.4233 9.27171 25.4274 9.25933 25.4469 9.30761C25.4584 9.33628 25.4747 9.38458 25.4859 9.44946C25.4973 9.51592 25.501 9.58679 25.4958 9.65812C25.4854 9.79984 25.444 9.88345 25.4489 9.87293C25.4513 9.86778 25.4603 9.84939 25.4823 9.8105C25.5046 9.77119 25.5327 9.72405 25.5727 9.65814L23.0074 8.1028C22.891 8.29473 22.55 8.80879 22.5038 9.43861C22.4491 10.1844 22.7925 10.7614 23.0862 11.1564L25.4938 9.3666ZM24.29 7.38047C24.6133 7.41573 25.2432 7.72235 25.5038 7.99924C25.6497 8.24719 25.7778 8.69025 25.7898 8.86458C25.7927 9.14084 25.7147 9.34933 25.7071 9.37131C25.6681 9.48357 25.6235 9.56626 25.6193 9.57417C25.6055 9.60048 25.5941 9.62019 25.5892 9.6285C25.5834 9.63845 25.5789 9.64581 25.5767 9.64941C25.5705 9.65959 25.5698 9.66029 25.5816 9.64221C25.6022 9.61077 25.6366 9.55924 25.6874 9.48364C25.7856 9.3375 25.9344 9.11704 26.1124 8.85064C26.4699 8.31581 26.9567 7.57874 27.4584 6.78162C27.9582 5.98766 28.483 5.11796 28.9119 4.32021C29.3145 3.57147 29.7206 2.7295 29.8671 2.04652L26.9337 1.41754C26.8868 1.63632 26.6787 2.13878 26.2697 2.89946C25.887 3.61112 25.4028 4.4158 24.9195 5.18352C24.4383 5.94807 23.9682 6.65995 23.6182 7.18365C23.4425 7.44652 23.2999 7.65772 23.197 7.81092C23.1473 7.88499 23.1037 7.95006 23.0724 7.99779C23.0583 8.01931 23.0382 8.05024 23.0195 8.08075C23.0135 8.09046 22.9893 8.12976 22.9635 8.17901C22.958 8.18949 22.9124 8.27412 22.8729 8.38768C22.8651 8.41031 22.7871 8.61929 22.7899 8.89587C22.802 9.07037 22.9301 9.51355 23.076 9.76158C23.3366 10.0385 23.9666 10.3452 24.29 10.3805V7.38047Z" fill="white" mask="url(#path-1-inside-1_20_405)"/>
</svg>
