<svg width="26" height="26" viewBox="0 0 26 26" fill="none" xmlns="http://www.w3.org/2000/svg">
<path d="M21.8568 4.13756C20.705 2.97997 19.3331 2.06215 17.8212 1.43764C16.3092 0.813116 14.6873 0.4944 13.0502 0.500074C6.19095 0.500074 0.600503 6.06256 0.600503 12.8875C0.600503 15.075 1.17839 17.2 2.25879 19.075L0.5 25.5L7.09548 23.775C8.91708 24.7625 10.9648 25.2875 13.0502 25.2875C19.9095 25.2875 25.5 19.725 25.5 12.9C25.5 9.58755 24.206 6.47506 21.8568 4.13756ZM13.0502 23.1875C11.191 23.1875 9.36935 22.6875 7.77387 21.75L7.39698 21.525L3.47739 22.55L4.5201 18.75L4.26884 18.3625C3.23586 16.7212 2.68736 14.8241 2.68593 12.8875C2.68593 7.21255 7.33417 2.58757 13.0377 2.58757C15.8015 2.58757 18.402 3.66257 20.3492 5.61256C21.3134 6.56751 22.0775 7.70338 22.5972 8.95433C23.1169 10.2053 23.3819 11.5464 23.3769 12.9C23.402 18.575 18.7538 23.1875 13.0502 23.1875ZM18.7286 15.4875C18.4146 15.3375 16.8819 14.5875 16.6055 14.475C16.3166 14.375 16.1156 14.325 15.902 14.625C15.6884 14.9375 15.098 15.6375 14.9221 15.8375C14.7462 16.05 14.5578 16.075 14.2437 15.9125C13.9296 15.7625 12.9246 15.425 11.7437 14.375C10.8141 13.55 10.1985 12.5375 10.01 12.225C9.83417 11.9125 9.98492 11.75 10.1482 11.5875C10.2864 11.45 10.4623 11.225 10.6131 11.05C10.7638 10.875 10.8266 10.7375 10.9271 10.5375C11.0276 10.325 10.9774 10.15 10.902 10C10.8266 9.85005 10.1985 8.32505 9.94723 7.70005C9.69598 7.10006 9.43216 7.17505 9.24372 7.16255H8.6407C8.42713 7.16255 8.1005 7.23755 7.81156 7.55005C7.53517 7.86255 6.73115 8.61255 6.73115 10.1375C6.73115 11.6625 7.84925 13.1375 8 13.3375C8.15075 13.55 10.1985 16.675 13.3141 18.0125C14.0553 18.3375 14.6332 18.525 15.0854 18.6625C15.8266 18.9 16.505 18.8625 17.0452 18.7875C17.6482 18.7 18.892 18.0375 19.1432 17.3125C19.407 16.5875 19.407 15.975 19.3191 15.8375C19.2312 15.7 19.0427 15.6375 18.7286 15.4875Z" fill="white"/>
</svg>
